<svg width="58" height="55" viewBox="0 0 58 55" fill="none" xmlns="http://www.w3.org/2000/svg">
<g clip-path="url(#clip0_0_1128)">
<path d="M46.8344 21.4566C51.1858 17.1052 51.1858 10.0501 46.8344 5.69872C42.483 1.34731 35.428 1.34731 31.0766 5.69872C26.7252 10.0501 26.7252 17.1052 31.0766 21.4566C35.428 25.808 42.483 25.808 46.8344 21.4566Z" fill="#FF3A4A"/>
<path d="M50.4913 52.2337H27.4219C24.6172 52.2337 22.3435 49.9566 22.3435 47.1553V41.3307C22.3435 32.1598 29.7892 24.7176 38.9566 24.7176C48.1275 24.7176 55.5697 32.1633 55.5697 41.3307V47.1553C55.5697 49.96 53.2926 52.2337 50.4913 52.2337Z" fill="#FF3A4A"/>
<path d="M16.474 28.9713C21.6769 28.9713 25.8947 24.7535 25.8947 19.5505C25.8947 14.3476 21.6769 10.1298 16.474 10.1298C11.271 10.1298 7.05318 14.3476 7.05318 19.5505C7.05318 24.7535 11.271 28.9713 16.474 28.9713Z" fill="#FFC8CD"/>
<path d="M6.72341 52.4142H26.228C28.5988 52.4142 30.5218 50.4912 30.5218 48.1203V43.1982C30.5218 35.4401 24.232 29.1538 16.4774 29.1538C8.71934 29.1538 2.43303 35.4436 2.43303 43.1982V48.1203C2.43303 50.4912 4.35606 52.4142 6.72688 52.4142H6.72341Z" fill="#FFC8CD"/>
</g>
<defs>
<clipPath id="clip0_0_1128">
<rect width="57.5827" height="54.2709" fill="white" transform="scale(1.00725)"/>
</clipPath>
</defs>
</svg>
