<svg width="70" height="70" viewBox="0 0 70 70" fill="none" xmlns="http://www.w3.org/2000/svg">
<path d="M41.5053 5.94038L43.0238 7.68432C44.4275 9.2964 46.5074 10.1599 48.6427 10.011L50.9524 9.84936C56.1757 9.48781 60.5143 13.8264 60.1527 19.0497L59.9911 21.3594C59.8422 23.4946 60.7057 25.5746 62.3177 26.9782L64.0617 28.4968C68.0132 31.9336 68.0132 38.0714 64.0617 41.5082L62.3177 43.0267C60.7057 44.4304 59.8422 46.5104 59.9911 48.6456L60.1527 50.9553C60.5143 56.1786 56.1757 60.5172 50.9524 60.1556L48.6427 59.994C46.5074 59.8451 44.4275 60.7086 43.0238 62.3207L41.5053 64.0646C38.0685 68.0161 31.9307 68.0161 28.4938 64.0646L26.9753 62.3207C25.5717 60.7086 23.4917 59.8451 21.3564 59.994L19.0468 60.1556C13.8235 60.5172 9.48488 56.1786 9.84643 50.9553L10.0081 48.6456C10.1569 46.5104 9.29347 44.4304 7.68139 43.0267L5.93745 41.5082C1.98594 38.0714 1.98594 31.9336 5.93745 28.4968L7.68139 26.9782C9.29347 25.5746 10.1569 23.4946 10.0081 21.3594L9.84643 19.0497C9.48488 13.8264 13.8235 9.48781 19.0468 9.84936L21.3564 10.011C23.4917 10.1599 25.5717 9.2964 26.9753 7.68432L28.4938 5.94038C31.9307 1.98887 38.0685 1.98887 41.5053 5.94038Z" fill="#FF3A4A"/>
<path d="M27.6615 48.6569C27.0787 48.6569 26.4917 48.4867 25.9771 48.1337C24.6202 47.2022 24.2799 45.3476 25.2114 43.995L39.8903 22.6424C40.8218 21.2855 42.6764 20.9452 44.029 21.8768C45.3858 22.8083 45.7261 24.6628 44.7946 26.0154L30.1157 47.3681C29.5373 48.206 28.6057 48.6611 27.6615 48.6611V48.6569Z" fill="white"/>
<path d="M28.6209 31.8082C30.3252 30.1039 30.3252 27.3407 28.6209 25.6364C26.9166 23.9321 24.1535 23.9321 22.4492 25.6364C20.7449 27.3407 20.7449 30.1039 22.4492 31.8082C24.1535 33.5125 26.9166 33.5125 28.6209 31.8082Z" fill="white"/>
<path d="M47.5506 44.3675C49.2548 42.6632 49.2548 39.9 47.5506 38.1957C45.8463 36.4914 43.0831 36.4914 41.3788 38.1957C39.6745 39.9 39.6745 42.6632 41.3788 44.3675C43.0831 46.0718 45.8463 46.0718 47.5506 44.3675Z" fill="white"/>
</svg>
