<svg width="56" height="58" viewBox="0 0 56 58" fill="none" xmlns="http://www.w3.org/2000/svg">
<g clip-path="url(#clip0_0_1112)">
<path d="M53.5394 35.5004H2.46061C1.10024 35.5004 0 34.4001 0 33.0397V20.0266C0 16.6626 2.73831 13.9243 6.10232 13.9243H49.8942C53.2582 13.9243 55.9965 16.6626 55.9965 20.0266V33.0397C55.9965 34.4001 54.8962 35.5004 53.5359 35.5004H53.5394Z" fill="#FFC8CD"/>
<path d="M46.0949 57.3607H9.90629C6.48253 57.3607 3.69852 54.5767 3.69852 51.1529V33.0393C3.69852 31.6789 4.79876 30.5787 6.15913 30.5787H49.842C51.2024 30.5787 52.3026 31.6789 52.3026 33.0393V51.1529C52.3026 54.5767 49.5186 57.3607 46.0949 57.3607Z" fill="#FFC8CD"/>
<path d="M33.6052 57.36H22.3954C21.035 57.36 19.9348 56.2597 19.9348 54.8994V16.3803C19.9348 15.0199 21.035 13.9197 22.3954 13.9197H33.6052C34.9656 13.9197 36.0658 15.0199 36.0658 16.3803V54.8959C36.0658 56.2562 34.9656 57.3565 33.6052 57.3565V57.36Z" fill="#FF3A4A"/>
<path d="M28.0024 18.8442C27.7669 18.8442 27.5279 18.8091 27.2959 18.7388L15.281 15.1287C12.6833 14.3483 10.7219 12.3166 10.0329 9.69426C9.34394 7.07195 10.054 4.33715 11.9311 2.37921C13.6711 0.568902 16.0966 -0.267706 18.5853 0.0802948C21.074 0.431811 23.1726 1.90818 24.3431 4.13327L30.1853 15.2377C30.6458 16.1165 30.5368 17.1851 29.9076 17.9478C29.4331 18.5243 28.73 18.8442 28.0094 18.8442H28.0024ZM17.4921 4.9277C16.7328 4.9277 16.0157 5.23 15.4814 5.79243C14.7889 6.51304 14.5393 7.47971 14.7924 8.44637C15.0455 9.41304 15.7415 10.1301 16.6977 10.4184L23.0988 12.3412L19.9878 6.42516C19.5625 5.61667 18.7997 5.08237 17.8998 4.95231C17.7627 4.93473 17.6292 4.92418 17.4956 4.92418L17.4921 4.9277Z" fill="#FF3A4A"/>
<path d="M28.0028 18.8421C27.2787 18.8421 26.5792 18.5222 26.1046 17.9458C25.4754 17.1795 25.3629 16.1144 25.8269 15.2356L31.6691 4.13118C32.8397 1.90609 34.9382 0.429722 37.427 0.0782058C39.9157 -0.27331 42.3411 0.563298 44.0812 2.37712C45.9582 4.33506 46.6683 7.06634 45.9793 9.69217C45.2904 12.3145 43.3289 14.3462 40.7312 15.1266L28.7164 18.7367C28.4844 18.807 28.2454 18.8421 28.0098 18.8421H28.0028ZM38.5131 4.92561C38.3796 4.92561 38.246 4.93616 38.1089 4.95373C37.2055 5.08028 36.4427 5.6181 36.0209 6.42658L32.91 12.3426L39.3111 10.4198C40.2672 10.1316 40.9632 9.41447 41.2163 8.4478C41.4694 7.48113 41.2163 6.51446 40.5273 5.79385C39.9895 5.23494 39.2724 4.92913 38.5167 4.92913L38.5131 4.92561Z" fill="#FF3A4A"/>
</g>
<defs>
<clipPath id="clip0_0_1112">
<rect width="55.8184" height="57.1743" fill="white" transform="scale(1.00325)"/>
</clipPath>
</defs>
</svg>
