<svg width="77" height="84" viewBox="0 0 77 84" fill="none" xmlns="http://www.w3.org/2000/svg">
<g clip-path="url(#clip0_0_1213)">
<path d="M60.2821 0H0V74.1224H60.2821V0Z" fill="#EFEFEF"/>
<path d="M18.1029 14.9369H10.5249V22.3497H18.1029V14.9369Z" fill="white"/>
<path d="M49.7509 14.9369H22.5264V22.3497H49.7509V14.9369Z" fill="white"/>
<path d="M18.1029 27.6747H10.5249V35.0875H18.1029V27.6747Z" fill="white"/>
<path d="M49.7509 27.6747H22.5264V35.0875H49.7509V27.6747Z" fill="white"/>
<path d="M71.1549 48.511H32.3254C29.0972 48.511 26.4802 51.1605 26.4802 54.4289V78.0821C26.4802 81.3505 29.0972 84 32.3254 84H71.1549C74.3831 84 77 81.3505 77 78.0821V54.4289C77 51.1605 74.3831 48.511 71.1549 48.511Z" fill="#FF3A4A"/>
<path d="M45.3703 63.9915H37.9937V68.9334H45.3703V63.9915Z" fill="white"/>
<path d="M65.4806 63.9915H58.104V68.9334H65.4806V63.9915Z" fill="white"/>
<path d="M58.4213 75.8026L53.7415 75.7038L51.7402 68.1859L49.739 75.7038L45.0531 75.8026L39.5984 58.2836L44.2538 56.801L47.1947 66.2524L49.379 58.0427H54.0954L56.2797 66.2524L59.2206 56.801L63.876 58.2836L58.4213 75.8026Z" fill="white"/>
</g>
<defs>
<clipPath id="clip0_0_1213">
<rect width="77" height="84" fill="white"/>
</clipPath>
</defs>
</svg>
