<svg width="80" height="117" viewBox="0 0 80 117" fill="none" xmlns="http://www.w3.org/2000/svg">
<circle cx="39.8839" cy="39.8839" r="39.8839" fill="#F3F5F7"/>
<mask id="mask0_0_789" style="mask-type:luminance" maskUnits="userSpaceOnUse" x="0" y="0" width="80" height="81">
<path d="M40.1161 80.3274C62.1433 80.3274 80 62.4707 80 40.4435C80 18.4162 62.1433 0.559581 40.1161 0.559581C18.0888 0.559581 0.232182 18.4162 0.232182 40.4435C0.232182 62.4707 18.0888 80.3274 40.1161 80.3274Z" fill="white"/>
</mask>
<g mask="url(#mask0_0_789)">
<path d="M50.2045 14.2547C49.9243 12.4525 48.1178 10.023 46.5874 9.1825C45.0569 8.342 43.3216 7.20879 41.6155 6.96208C39.4913 6.65682 37.3001 6.41429 35.2344 7.02062C33.1938 7.61858 30.066 10.2572 28.4895 11.7625C26.4865 13.6735 26.0307 15.4465 24.9435 18.0642C23.8563 20.6818 23.5803 23.7678 24.6383 26.398C25.3993 28.2923 26.7918 29.8311 28.3055 31.1191C29.1753 31.8592 30.1162 32.545 31.1783 32.9088C32.7631 33.4524 34.511 33.2391 36.0791 32.6453C37.6472 32.0515 39.0731 31.1023 40.4781 30.1573C43.3048 28.2505 46.3281 26.0175 47.2104 22.5886" fill="#3B2E2A"/>
<path d="M31.7438 53.1807C30.159 53.4901 29.2056 53.7577 29.2056 53.7577L5.41245 62.0665C5.41245 62.0665 6.86346 83.0664 17.8192 85.4708C23.5396 86.7253 39.1954 87.0389 52.9277 86.9678L44.1757 64.3664L31.7397 53.1807H31.7438Z" fill="#303742"/>
<path d="M76.7201 63.622C75.1729 62.3675 63.7237 58.5665 53.1861 54.2762C53.0398 54.2176 52.8934 54.1633 52.7471 54.1089L51.9568 62.2672L53.1527 86.9636C65.6347 86.8925 76.4734 86.4994 76.7159 86.2025C77.2302 85.5753 78.2631 64.8765 76.7159 63.622H76.7201Z" fill="#303742"/>
<path d="M52.751 54.1086C45.0987 51.1731 36.0623 52.3398 31.7469 53.1803L41.6782 64.9723L52.9308 86.9674C53.0061 86.9674 53.0813 86.9674 53.1566 86.9674L53.9887 62.0201L52.7468 54.1128L52.751 54.1086Z" fill="#E3E3E3"/>
<path d="M46.3952 42.2879C46.2488 44.7216 46.2948 47.1887 46.9304 49.5555C47.5618 51.9222 48.8205 54.1928 50.7984 55.8069C50.7984 55.8069 50.2046 59.2442 48.4859 60.2101H48.5236C44.9316 59.1271 33.9508 55.9742 30.7393 54.1343C32.7172 52.5244 33.5577 51.9222 34.1891 49.5555C34.8206 47.1887 34.8707 44.7216 34.7244 42.2879" fill="#E3B7A1"/>
<path d="M53.9957 24.5701C53.9957 24.5701 53.9957 34.1877 51.3069 38.57C48.6182 42.9523 42.6803 47.3388 40.7024 46.9123C38.7245 47.3346 32.7825 42.9523 30.0979 38.57C27.4092 34.1877 27.4092 24.5701 27.4092 24.5701L40.1254 17.7332H47.1881L49.789 18.419L53.9998 24.5659L53.9957 24.5701Z" fill="#EDBFA9"/>
<path d="M28.6554 29.8645C28.0826 29.2958 27.2295 29.0282 26.435 29.1662C25.6405 29.3041 24.9297 29.8478 24.5826 30.5753C24.223 31.3364 24.2648 32.248 24.5742 33.0258C24.8837 33.8035 25.444 34.4684 26.0796 35.0204C26.665 35.5263 27.3215 35.9529 28.024 36.2832C28.5634 36.5341 29.1405 36.7348 29.5963 37.1153" fill="#EDBFA9"/>
<path d="M47.3817 18.3567C48.2389 18.8124 49.1212 19.2181 50.0244 19.5693C50.1541 19.6195 50.3046 19.6655 50.4217 19.5944C50.5011 19.5442 50.5471 19.4522 50.5722 19.3602C50.7395 18.779 50.3799 18.1518 49.8697 17.8214C49.3596 17.4911 48.7407 17.4033 48.1427 17.3489C47.6493 17.3029 47.0597 17.3113 46.7754 17.7169C46.5621 18.0179 46.9802 17.9218 46.813 18.2479" fill="#CCA592"/>
<path d="M52.6542 29.8645C53.2271 29.2958 54.0801 29.0282 54.8746 29.1662C55.6691 29.3041 56.38 29.8478 56.7271 30.5753C57.0867 31.3364 57.0449 32.248 56.7354 33.0258C56.426 33.8035 55.8657 34.4684 55.2301 35.0204C54.6446 35.5263 53.9881 35.9529 53.2856 36.2832C52.7462 36.5341 52.1691 36.7348 51.7133 37.1153" fill="#EDBFA9"/>
<path d="M35.4851 31.0932C35.947 31.0932 36.3215 30.6121 36.3215 30.0186C36.3215 29.425 35.947 28.9439 35.4851 28.9439C35.0233 28.9439 34.6488 29.425 34.6488 30.0186C34.6488 30.6121 35.0233 31.0932 35.4851 31.0932Z" fill="#0A0807"/>
<path d="M46.2098 30.0186C46.2098 30.6123 45.8335 31.0932 45.3735 31.0932C44.9135 31.0932 44.5372 30.6123 44.5372 30.0186C44.5372 29.4248 44.9135 28.9439 45.3735 28.9439C45.8335 28.9439 46.2098 29.4248 46.2098 30.0186Z" fill="#0A0807"/>
<path d="M39.6327 34.6642C39.5909 34.6642 39.5491 34.6517 39.5114 34.6266L38.6124 34.0035C38.5037 33.9283 38.3531 33.8237 38.2779 33.6523C38.1524 33.3763 38.2779 33.0668 38.4618 32.8829C38.5831 32.7616 38.7211 32.678 38.8507 32.5985C38.8925 32.5734 38.9385 32.5483 38.9804 32.5191C39.6285 32.1051 40.0007 31.2813 39.8836 30.5245C39.8669 30.4115 39.9463 30.3028 40.0592 30.2861C40.1721 30.2736 40.2808 30.3488 40.2976 30.4617C40.4355 31.3775 39.9881 32.3685 39.2062 32.8703C39.1602 32.8996 39.11 32.9289 39.064 32.9581C38.9469 33.025 38.8382 33.0919 38.7587 33.1756C38.6793 33.2592 38.6166 33.3888 38.6584 33.4808C38.6876 33.5477 38.7755 33.6063 38.8507 33.6606L39.7498 34.2837C39.8459 34.3506 39.8669 34.4802 39.8041 34.5764C39.7623 34.6349 39.6996 34.6684 39.6327 34.6684V34.6642Z" fill="#A38375"/>
<path d="M56.5887 32.5987C56.5887 32.5987 56.5678 32.5987 56.5553 32.5987C56.4424 32.5819 56.3629 32.4732 56.3797 32.3603C56.4048 32.1847 56.3086 31.9923 56.1999 31.8084C55.7232 31.0097 55.1879 30.5581 54.5983 30.4661C54.1425 30.395 53.6491 30.5706 53.3397 30.9093C53.2602 30.9929 53.1306 31.0013 53.0428 30.9219C52.9591 30.8424 52.9508 30.7128 53.0302 30.625C53.44 30.1775 54.0631 29.9601 54.661 30.0521C55.3761 30.1608 56.0159 30.6793 56.5595 31.5909C56.71 31.8418 56.8396 32.1136 56.7936 32.4189C56.7769 32.5234 56.6891 32.5945 56.5887 32.5945V32.5987Z" fill="#A38375"/>
<path d="M52.9225 35.3291C52.818 35.3291 52.7302 35.2538 52.7134 35.1451C52.7009 35.0322 52.7804 34.9276 52.8933 34.9109C53.6627 34.8147 54.3944 34.3213 54.8628 33.5979C55.3102 32.8954 55.49 31.7413 55.4649 30.9091C55.4649 30.7921 55.5527 30.6959 55.6698 30.6959C55.7785 30.7001 55.8831 30.7837 55.8831 30.9008C55.9082 31.7329 55.7451 32.9957 55.214 33.8279C54.683 34.6558 53.8383 35.2203 52.9476 35.3332C52.9393 35.3332 52.9309 35.3332 52.9225 35.3332V35.3291Z" fill="#A38375"/>
<path d="M24.8195 32.5984C24.7191 32.5984 24.6271 32.5232 24.6146 32.4228C24.5686 32.1175 24.6982 31.8457 24.8488 31.5949C25.3924 30.6833 26.028 30.1648 26.7472 30.0519C27.3452 29.9599 27.9682 30.1815 28.378 30.6247C28.4575 30.7084 28.4491 30.8422 28.3655 30.9216C28.2818 31.0011 28.148 30.9927 28.0686 30.9091C27.7591 30.5704 27.2657 30.3947 26.8099 30.4658C26.2245 30.5578 25.6851 31.0094 25.2084 31.8081C25.0997 31.9921 25.0035 32.1845 25.0286 32.3601C25.0453 32.473 24.9659 32.5817 24.853 32.5984C24.8404 32.5984 24.832 32.5984 24.8195 32.5984Z" fill="#A38375"/>
<path d="M28.4828 35.3293C28.4828 35.3293 28.4661 35.3293 28.4577 35.3293C27.5671 35.2164 26.7224 34.6561 26.1913 33.824C25.6603 32.996 25.5014 31.729 25.5223 30.8969C25.5223 30.7798 25.6184 30.7003 25.7355 30.692C25.8526 30.692 25.9404 30.7923 25.9404 30.9052C25.9153 31.7374 26.0951 32.8915 26.5426 33.594C27.0067 34.3216 27.7427 34.8108 28.5121 34.907C28.625 34.9195 28.7086 35.0241 28.6919 35.1412C28.6794 35.2457 28.5874 35.3252 28.4828 35.3252V35.3293Z" fill="#A38375"/>
<path d="M48.238 26.9327C48.1878 26.9327 48.1376 26.916 48.1 26.8783C47.5606 26.3975 46.7577 26.3473 45.913 26.3389C45.5534 26.3347 45.1394 26.3515 44.9304 26.5898C44.8551 26.6776 44.7213 26.686 44.6335 26.6107C44.5457 26.5355 44.5373 26.4016 44.6126 26.3138C44.9387 25.9417 45.4531 25.9166 45.913 25.9208C46.8413 25.9333 47.7278 25.9877 48.3718 26.5647C48.4596 26.64 48.4638 26.7738 48.3885 26.8616C48.3467 26.9076 48.2882 26.9327 48.2338 26.9327H48.238Z" fill="#52423A"/>
<path d="M48.6624 37.2739C49.8518 37.2739 50.8159 36.3098 50.8159 35.1204C50.8159 33.9311 49.8518 32.9669 48.6624 32.9669C47.4731 32.9669 46.5089 33.9311 46.5089 35.1204C46.5089 36.3098 47.4731 37.2739 48.6624 37.2739Z" fill="#E3A1A1"/>
<path d="M32.6152 37.2739C33.8046 37.2739 34.7688 36.3098 34.7688 35.1204C34.7688 33.9311 33.8046 32.9669 32.6152 32.9669C31.4259 32.9669 30.4617 33.9311 30.4617 35.1204C30.4617 36.3098 31.4259 37.2739 32.6152 37.2739Z" fill="#E3A1A1"/>
<path d="M47.5653 18.3523C47.9709 18.3523 48.2302 18.7412 48.3891 19.0799C49.1251 20.6689 49.4638 22.3959 50.2332 23.9765C50.6722 24.8755 51.2493 25.7119 51.8222 26.544C52.2654 27.1921 52.7798 27.8863 53.591 28.0953C53.6746 28.1163 53.7666 28.133 53.8461 28.1037C53.9799 28.0535 54.0217 27.903 54.0468 27.7734C54.4147 25.7244 54.1889 23.6252 53.8126 21.5763C53.5701 20.2507 53.2439 18.8833 52.3532 17.8045C51.4667 16.7256 49.8694 16.0064 48.4602 16.4371" fill="#CCA592"/>
<path d="M47.463 18.3734C47.8686 18.0723 48.4624 18.1476 48.8806 18.4319C49.2987 18.7121 49.5747 19.1595 49.8214 19.5986C50.2856 20.4391 50.6745 21.3214 50.9839 22.2288C51.837 24.7252 51.7993 27.5854 53.7103 29.4086C55.0568 28.2753 56.19 26.5442 56.3907 24.7921C56.5914 23.04 56.2778 21.267 55.7718 19.5818C55.3704 18.2479 54.8268 16.9182 53.8943 15.877C52.966 14.8358 51.5902 14.1165 50.202 14.2545C48.8137 14.3925 47.509 15.5466 47.4756 16.9433" fill="#3B2E2A"/>
<path d="M44.3463 51.0485C44.5638 51.0359 44.7938 51.0067 44.9777 50.8854C45.1743 50.7558 45.2955 50.5425 45.3917 50.3334C46.0691 48.849 45.9437 47.1387 45.8057 45.5121C44.9568 45.8424 44.4341 46.7205 43.6229 47.1429C42.9831 47.4774 42.2304 47.4941 41.5112 47.4941C39.8302 47.5025 38.7639 47.0718 37.2376 46.5365C36.1044 46.1393 36.623 47.0174 37.1624 47.6698C38.6761 49.4887 41.967 51.1781 44.3463 51.0527V51.0485Z" fill="#BD9886"/>
<path d="M41.0285 38.3403C39.4771 38.3403 37.9174 38.1563 36.4204 37.7841C36.3075 37.7548 36.2406 37.6419 36.2657 37.5332C36.295 37.4203 36.4037 37.3534 36.5208 37.3785C39.0339 37.9974 41.7101 38.0894 44.2609 37.6419C44.3738 37.621 44.4825 37.6963 44.5034 37.8134C44.5243 37.9263 44.449 38.035 44.3319 38.0559C43.2447 38.2441 42.1366 38.3403 41.0285 38.3403Z" fill="#A38375"/>
<path d="M33.8671 50.5674L48.4859 60.2101L41.6783 64.9729L30.1163 53.7538L34.3271 49.016L33.8671 50.5674Z" fill="white"/>
<path d="M49.753 54.8327L48.4776 60.2103L54.2691 62.4976L53.1819 54.2766L46.9179 49.5556C46.9179 49.5556 47.3778 52.374 49.7488 54.8327H49.753Z" fill="white"/>
<path d="M42.9446 17.8839C41.6651 17.9299 40.3312 18.4443 39.6161 19.5106C39.3318 19.9371 39.1561 20.4263 38.993 20.9114C38.5038 22.3917 38.1567 24.1521 39.085 25.4066C38.1149 25.3522 37.2786 24.725 36.5259 24.1103C36.0869 23.7507 35.652 23.3827 35.3091 22.9311C34.0964 21.3421 34.3013 18.9711 35.4387 17.332C36.5761 15.6928 38.4703 14.7059 40.4064 14.225C41.3682 13.9867 42.3759 13.8571 43.3503 14.0327C44.3246 14.2083 45.2696 14.7185 45.8132 15.5464C46.2439 16.1988 47.7409 18.3857 47.3144 18.4903C46.9924 18.5697 43.827 17.8588 42.9446 17.8881V17.8839Z" fill="#CCA592"/>
<path d="M42.0442 16.3076C40.2838 16.4497 38.6237 17.5328 37.7832 19.0883C37.1309 20.2968 36.972 21.7896 37.4528 23.0775C37.9337 24.3655 39.0711 25.4108 40.4176 25.6952C37.5239 26.703 34.5425 27.4515 31.5192 27.9365C30.3525 28.1247 29.0897 28.2543 28.0485 27.694C26.7856 27.0124 26.2169 25.4819 26.1166 24.0477C25.9535 21.7687 26.7145 19.4772 28.0025 17.5913C29.2904 15.7054 31.0843 14.2 33.0371 13.0208C34.0616 12.402 35.1446 11.8584 36.2987 11.5322C39.2342 10.7001 42.5585 11.3942 44.9253 13.3219C46 14.2 47.267 15.2705 47.5597 16.7508C47.6726 17.3237 47.4844 18.2436 47.3172 18.8081C45.862 17.3864 44.2019 16.1361 42.0442 16.3076Z" fill="#3B2E2A"/>
<path d="M45.2137 62.4969L47.7268 66.0973H51.1056L52.0213 61.6063L48.4837 60.2096L45.5482 62.3673L45.2137 62.4969Z" fill="#C26F6B"/>
<path d="M47.7291 66.0979L47.5702 76.4891L53.1735 87.2985L53.529 75.8117L51.1078 66.0979H47.7291Z" fill="#915350"/>
<path d="M23.9621 55.5851L30.7404 67.996L40.3832 71.2702L40.1197 79.7128L47.5964 86.2151L53.1537 86.9636L41.6753 64.9727L30.1132 53.1807L23.9621 55.5851Z" fill="#39424F"/>
<path d="M61.3797 57.479L60.8236 68.7107L56.9807 72.3947L58.369 85.2907L53.1545 86.9633L54.2752 62.4969L53.188 54.2759L61.3797 57.479Z" fill="#39424F"/>
</g>
<g clip-path="url(#clip0_0_789)">
<path d="M12.6605 94.7564L13.9429 97.4712C14.0501 97.6992 14.2581 97.8565 14.498 97.8925L17.3654 98.3285C17.9702 98.4205 18.2127 99.1979 17.775 99.6432L15.7001 101.757C15.5266 101.934 15.4474 102.189 15.4883 102.439L15.9783 105.423C16.0817 106.053 15.4487 106.534 14.9077 106.237L12.3427 104.827C12.1284 104.709 11.8706 104.709 11.6562 104.827L9.09131 106.237C8.55025 106.534 7.91732 106.054 8.02068 105.423L8.51069 102.439C8.55153 102.189 8.47241 101.934 8.29886 101.757L6.22269 99.6445C5.78499 99.1979 6.02617 98.4205 6.63231 98.3298L9.49965 97.8938C9.73955 97.8578 9.94755 97.6992 10.0547 97.4725L11.3372 94.7564C11.6077 94.1831 12.39 94.1831 12.6605 94.7564Z" fill="#FBCD30"/>
</g>
<g clip-path="url(#clip1_0_789)">
<path d="M26.6607 94.7564L27.9432 97.4712C28.0504 97.6992 28.2584 97.8565 28.4983 97.8925L31.3656 98.3285C31.9705 98.4205 32.213 99.1979 31.7753 99.6432L29.7004 101.757C29.5268 101.934 29.4477 102.189 29.4885 102.439L29.9785 105.423C30.0819 106.053 29.449 106.534 28.9079 106.237L26.343 104.827C26.1286 104.709 25.8709 104.709 25.6565 104.827L23.0916 106.237C22.5505 106.534 21.9176 106.054 22.0209 105.423L22.5109 102.439C22.5518 102.189 22.4727 101.934 22.2991 101.757L20.2229 99.6445C19.7852 99.1979 20.0264 98.4205 20.6326 98.3298L23.4999 97.8938C23.7398 97.8578 23.9478 97.6992 24.055 97.4725L25.3375 94.7564C25.608 94.1831 26.3902 94.1831 26.6607 94.7564Z" fill="#FBCD30"/>
</g>
<g clip-path="url(#clip2_0_789)">
<path d="M40.661 94.7564L41.9435 97.4712C42.0506 97.6992 42.2587 97.8565 42.4986 97.8925L45.3659 98.3285C45.9708 98.4205 46.2132 99.1979 45.7755 99.6432L43.7006 101.757C43.5271 101.934 43.448 102.189 43.4888 102.439L43.9788 105.423C44.0822 106.053 43.4492 106.534 42.9082 106.237L40.3433 104.827C40.1289 104.709 39.8711 104.709 39.6567 104.827L37.0918 106.237C36.5508 106.534 35.9178 106.054 36.0212 105.423L36.5112 102.439C36.552 102.189 36.4729 101.934 36.2994 101.757L34.2232 99.6445C33.7855 99.1979 34.0267 98.4205 34.6328 98.3298L37.5002 97.8938C37.7401 97.8578 37.9481 97.6992 38.0553 97.4725L39.3377 94.7564C39.6082 94.1831 40.3905 94.1831 40.661 94.7564Z" fill="#FBCD30"/>
</g>
<g clip-path="url(#clip3_0_789)">
<path d="M54.6613 94.7564L55.9437 97.4712C56.0509 97.6992 56.2589 97.8565 56.4988 97.8925L59.3662 98.3285C59.971 98.4205 60.2135 99.1979 59.7758 99.6432L57.7009 101.757C57.5273 101.934 57.4482 102.189 57.489 102.439L57.9791 105.423C58.0824 106.053 57.4495 106.534 56.9084 106.237L54.3435 104.827C54.1291 104.709 53.8714 104.709 53.657 104.827L51.0921 106.237C50.551 106.534 49.9181 106.054 50.0214 105.423L50.5115 102.439C50.5523 102.189 50.4732 101.934 50.2996 101.757L48.2235 99.6445C47.7858 99.1979 48.0269 98.4205 48.6331 98.3298L51.5004 97.8938C51.7403 97.8578 51.9483 97.6992 52.0555 97.4725L53.338 94.7564C53.6085 94.1831 54.3907 94.1831 54.6613 94.7564Z" fill="#FBCD30"/>
</g>
<g clip-path="url(#clip4_0_789)">
<path d="M68.6615 94.7564L69.944 97.4712C70.0512 97.6992 70.2592 97.8565 70.4991 97.8925L73.3664 98.3285C73.9713 98.4205 74.2137 99.1979 73.776 99.6432L71.7011 101.757C71.5276 101.934 71.4485 102.189 71.4893 102.439L71.9793 105.423C72.0827 106.053 71.4497 106.534 70.9087 106.237L68.3438 104.827C68.1294 104.709 67.8716 104.709 67.6572 104.827L65.0923 106.237C64.5513 106.534 63.9183 106.054 64.0217 105.423L64.5117 102.439C64.5526 102.189 64.4734 101.934 64.2999 101.757L62.2237 99.6445C61.786 99.1979 62.0272 98.4205 62.6333 98.3298L65.5007 97.8938C65.7406 97.8578 65.9486 97.6992 66.0558 97.4725L67.3382 94.7564C67.6088 94.1831 68.391 94.1831 68.6615 94.7564Z" fill="#FBCD30"/>
</g>
<defs>
<clipPath id="clip0_0_789">
<rect width="12" height="12" fill="white" transform="translate(5.99938 94.3274)"/>
</clipPath>
<clipPath id="clip1_0_789">
<rect width="12" height="12" fill="white" transform="translate(19.9996 94.3274)"/>
</clipPath>
<clipPath id="clip2_0_789">
<rect width="12" height="12" fill="white" transform="translate(33.9999 94.3274)"/>
</clipPath>
<clipPath id="clip3_0_789">
<rect width="12" height="12" fill="white" transform="translate(48.0001 94.3274)"/>
</clipPath>
<clipPath id="clip4_0_789">
<rect width="12" height="12" fill="white" transform="translate(62.0004 94.3274)"/>
</clipPath>
</defs>
</svg>
