<svg width="81" height="117" viewBox="0 0 81 117" fill="none" xmlns="http://www.w3.org/2000/svg">
<circle cx="40.3014" cy="40.3014" r="40.3014" fill="#F3F5F7"/>
<mask id="mask0_0_914" style="mask-type:luminance" maskUnits="userSpaceOnUse" x="0" y="0" width="81" height="81">
<path d="M40.4885 80.7285C62.7475 80.7285 80.792 62.684 80.792 40.425C80.792 18.166 62.7475 0.121514 40.4885 0.121514C18.2295 0.121514 0.184977 18.166 0.184977 40.425C0.184977 62.684 18.2295 80.7285 40.4885 80.7285Z" fill="white"/>
</mask>
<g mask="url(#mask0_0_914)">
<path d="M26.2682 22.1703C26.2598 20.1209 24.4259 18.4222 24.3794 16.3728C24.3709 15.9967 24.4301 15.608 24.6456 15.2995C24.9583 14.8558 25.5414 14.6741 26.0865 14.6319C26.6316 14.5896 27.1894 14.6572 27.7303 14.5685C29.0233 14.3657 30.0966 13.1994 30.1853 11.9064C30.198 11.7416 30.198 11.5599 30.3079 11.4374C30.4008 11.3317 30.5445 11.2937 30.6839 11.2641C33.4432 10.6556 36.3462 11.0148 39.0421 11.8557C40.6859 12.367 44.1001 13.0642 45.8115 12.8867C46.4833 12.8191 47.1425 12.6628 47.806 12.5487C50.616 12.0627 54.7866 17.8814 55.2176 19.1955C55.4458 19.8927 55.5134 20.6364 55.5726 21.3674C55.6021 21.7097 55.6317 22.052 55.5641 22.39C55.412 23.1422 54.812 23.7169 54.2457 24.2366C52.9907 25.386 51.6893 26.5607 50.0793 27.1269C48.8666 27.5537 47.5524 27.6002 46.2636 27.579C43.1198 27.5199 40.0013 27.0551 36.8955 26.5903C35.2771 26.3494 33.6587 26.1085 32.0403 25.8677C31.4234 25.7747 30.8022 25.6818 30.2064 25.5085C29.1036 25.1874 28.1021 24.6 27.1429 23.9746" fill="#242629"/>
<path d="M77.5416 62.7318C77.0176 62.098 76.2021 61.7937 75.4203 61.5317C68.9637 59.3767 62.1985 57.6231 55.3869 57.2047C54.6686 57.1625 53.9502 57.0949 53.2319 57.023C50.9923 56.7991 48.7528 56.4948 46.5174 56.4526L33.1308 55.8483C31.5716 56.2498 30.0166 56.647 28.4573 57.0484C27.6798 57.247 26.9065 57.4456 26.129 57.6442C23.8979 58.2189 21.6668 58.7893 19.4357 59.364C14.9608 60.5134 10.2662 61.781 6.97451 65.0178C6.28152 65.6981 5.63923 66.5052 5.46176 67.4602C5.13216 69.2223 6.42519 70.8364 7.6337 72.1633C11.1578 76.0339 14.7918 79.9595 19.4061 82.4356C22.495 84.0963 25.9135 85.0344 29.294 85.964C29.8306 86.1119 30.3757 86.2598 30.9166 86.4035C35.6704 87.6753 40.5932 88.7317 45.3596 87.6669C47.9457 87.088 50.35 85.9048 52.7037 84.6879C52.7037 84.971 52.7037 85.2541 52.7037 85.533C52.7924 85.4865 52.8854 87.1302 52.9741 87.0838C57.7913 84.5865 62.5492 79.4482 67.2481 76.7396C68.3129 76.1269 69.3778 75.5057 70.3792 74.7958C73.5653 72.5351 76.088 73.1563 77.5627 69.5392C78.1289 68.149 78.4966 63.8811 77.5374 62.7233L77.5416 62.7318Z" fill="#4A4A4A"/>
<path d="M46.7576 44.486C46.6097 46.9453 46.6562 49.4384 47.2985 51.8301C47.9408 54.2217 51.2452 57.2599 51.2072 58.1473C51.1691 59.0304 48.4098 68.4154 40.8841 68.4154C33.3584 68.4154 30.5188 59.0516 30.5188 58.1473C30.5188 57.243 33.7894 54.2217 34.4274 51.8301C35.0655 49.4384 35.1162 46.9453 34.9683 44.486" fill="#E3B7AA"/>
<path d="M54.9851 27.858C54.9851 27.858 54.9851 37.9359 52.1709 42.5291C49.3567 47.1223 43.1324 51.7155 41.0576 51.2719C38.9829 51.7155 32.7586 47.1223 29.9444 42.5291C27.1301 37.9359 27.1301 27.858 27.1301 27.858L34.3939 20.7843L47.734 21.4055L50.637 22.4534L51.4272 24.4902L54.9893 27.858H54.9851Z" fill="#EDC0B2"/>
<path d="M28.4358 33.4063C27.8357 32.8105 26.9399 32.5316 26.1117 32.6753C25.2835 32.819 24.5313 33.3894 24.1722 34.15C23.7919 34.9444 23.8384 35.8994 24.1637 36.7192C24.4891 37.5389 25.0764 38.2319 25.7399 38.8108C26.3526 39.3433 27.0413 39.7912 27.7766 40.1334C28.3428 40.3954 28.9471 40.6067 29.4246 41.0039" fill="#EDC0B2"/>
<path d="M53.5862 33.4063C54.1863 32.8105 55.0821 32.5316 55.9103 32.6753C56.7385 32.819 57.4907 33.3894 57.8498 34.15C58.2301 34.9444 58.1837 35.8994 57.8583 36.7192C57.5329 37.5389 56.9456 38.2319 56.2822 38.8108C55.6695 39.3433 54.9807 39.7912 54.2454 40.1334C53.6792 40.3954 53.0749 40.6067 52.5975 41.0039" fill="#EDC0B2"/>
<path d="M35.1668 34.6908C35.6499 34.6908 36.0415 34.1876 36.0415 33.5668C36.0415 32.9461 35.6499 32.4428 35.1668 32.4428C34.6837 32.4428 34.2921 32.9461 34.2921 33.5668C34.2921 34.1876 34.6837 34.6908 35.1668 34.6908Z" fill="#0A0807"/>
<path d="M46.3778 34.6908C46.8609 34.6908 47.2525 34.1876 47.2525 33.5668C47.2525 32.9461 46.8609 32.4428 46.3778 32.4428C45.8948 32.4428 45.5031 32.9461 45.5031 33.5668C45.5031 34.1876 45.8948 34.6908 46.3778 34.6908Z" fill="#0A0807"/>
<path d="M39.9387 38.439C39.8965 38.439 39.85 38.4263 39.8119 38.401L38.8696 37.7502C38.7556 37.6699 38.5992 37.5601 38.5189 37.3826C38.4048 37.1291 38.4809 36.8121 38.7133 36.5797C38.8401 36.453 38.9837 36.3685 39.1232 36.2839C39.1697 36.2586 39.2161 36.229 39.2584 36.1994C39.9345 35.7642 40.3275 34.9022 40.2049 34.1078C40.188 33.9895 40.2683 33.8754 40.3909 33.8585C40.5134 33.8416 40.6233 33.9219 40.6402 34.0444C40.7838 35.0078 40.3148 36.0431 39.495 36.5713C39.4443 36.6009 39.3936 36.6347 39.3429 36.6643C39.2204 36.7361 39.1063 36.8037 39.0218 36.8924C38.9373 36.9769 38.8739 37.1164 38.9161 37.2093C38.9457 37.277 39.0387 37.3403 39.119 37.3995L40.0613 38.0502C40.1584 38.1178 40.1838 38.2573 40.1162 38.3545C40.0739 38.4136 40.0063 38.4474 39.9345 38.4474L39.9387 38.439Z" fill="#A38375"/>
<path d="M57.7059 36.2711C57.7059 36.2711 57.6847 36.2711 57.6721 36.2711C57.5538 36.2542 57.4692 36.1401 57.4904 36.0218C57.52 35.8401 57.4143 35.6373 57.3002 35.4429C56.8016 34.6062 56.2396 34.133 55.6227 34.0358C55.1494 33.9639 54.6297 34.1456 54.3043 34.5006C54.224 34.5893 54.0846 34.5978 53.9958 34.5133C53.9071 34.433 53.8986 34.2935 53.9831 34.2048C54.4099 33.7358 55.0649 33.5076 55.6903 33.6048C56.4424 33.7188 57.1101 34.2639 57.6763 35.2189C57.8326 35.4809 57.9679 35.7683 57.9214 36.0852C57.9045 36.195 57.8115 36.2711 57.7059 36.2711Z" fill="#A38375"/>
<path d="M53.8644 39.132C53.7545 39.132 53.6616 39.0517 53.6489 38.9419C53.632 38.8236 53.7207 38.7137 53.839 38.6968C54.6419 38.5954 55.4152 38.0799 55.9011 37.3193C56.3701 36.584 56.5561 35.3755 56.5307 34.5008C56.5307 34.3783 56.6237 34.2811 56.742 34.2769C56.8603 34.2769 56.966 34.3698 56.966 34.4881C56.9913 35.3586 56.8223 36.6854 56.2645 37.5517C55.7067 38.4221 54.8194 39.0095 53.8897 39.1278C53.8813 39.1278 53.8728 39.1278 53.8602 39.1278L53.8644 39.132Z" fill="#A38375"/>
<path d="M24.4094 36.2711C24.3038 36.2711 24.2108 36.1951 24.1939 36.0852C24.1432 35.7641 24.2826 35.481 24.439 35.2147C25.0052 34.2598 25.6771 33.7147 26.425 33.6006C27.0504 33.5034 27.7053 33.7358 28.1321 34.2006C28.2124 34.2893 28.2082 34.4288 28.1195 34.5091C28.0307 34.5894 27.8913 34.5851 27.811 34.4964C27.4856 34.1414 26.9659 33.9597 26.4926 34.0316C25.8757 34.1288 25.3137 34.5978 24.8151 35.4387C24.701 35.6331 24.5995 35.8359 24.6249 36.0176C24.6418 36.1359 24.5615 36.25 24.4432 36.2669C24.4305 36.2669 24.4221 36.2669 24.4094 36.2669V36.2711Z" fill="#A38375"/>
<path d="M28.2549 39.1317C28.2549 39.1317 28.238 39.1317 28.2253 39.1317C27.2914 39.0134 26.4041 38.4261 25.8505 37.5556C25.2927 36.6851 25.1279 35.3625 25.1491 34.4921C25.1491 34.3695 25.2547 34.285 25.373 34.2808C25.4956 34.2808 25.5885 34.3864 25.5843 34.5047C25.5589 35.3752 25.7449 36.588 26.2139 37.3232C26.6998 38.0838 27.4731 38.5993 28.276 38.7007C28.3943 38.7176 28.483 38.8275 28.4661 38.9458C28.4535 39.0557 28.3563 39.136 28.2506 39.136L28.2549 39.1317Z" fill="#A38375"/>
<path d="M49.3986 41.1728C50.6448 41.1728 51.655 40.1626 51.655 38.9164C51.655 37.6702 50.6448 36.6599 49.3986 36.6599C48.1524 36.6599 47.1421 37.6702 47.1421 38.9164C47.1421 40.1626 48.1524 41.1728 49.3986 41.1728Z" fill="#E3A1A9"/>
<path d="M32.5821 41.1728C33.8283 41.1728 34.8386 40.1626 34.8386 38.9164C34.8386 37.6702 33.8283 36.6599 32.5821 36.6599C31.3359 36.6599 30.3257 37.6702 30.3257 38.9164C30.3257 40.1626 31.3359 41.1728 32.5821 41.1728Z" fill="#E3A1A9"/>
<path d="M38.7137 53.5455C39.3855 54.1033 40.1546 54.661 41.025 54.6272C41.5237 54.6061 41.9927 54.3906 42.4237 54.1371C44.1393 53.1229 45.4534 51.4538 46.0324 49.5439C44.9971 50.1777 43.9576 50.8115 42.8209 51.2341C41.6842 51.6566 40.4335 51.851 39.2545 51.5764C38.8024 51.4707 38.3714 51.3017 37.9446 51.1327C37.1755 50.8284 36.2332 50.2664 35.4304 50.1819C35.3966 50.7524 36.3558 51.4031 36.7276 51.7623C37.3699 52.3792 38.0376 52.975 38.7221 53.5455H38.7137Z" fill="#D49D90"/>
<path d="M34.429 51.83L28.7329 56.4528L34.2684 68.1703L40.835 64.2954L33.4149 55.3414L34.429 51.83Z" fill="white"/>
<path d="M47.2986 51.83L52.9862 56.4993L47.4 68.1703L40.8335 64.2954L48.2536 55.3414L47.2986 51.83Z" fill="white"/>
<path d="M43.6315 44.2365C41.1427 44.152 39.3975 44.2746 38.3707 44.3971C39.1905 44.6971 40.2131 44.8619 41.5061 44.8154C42.2287 44.7901 42.9724 44.5915 43.6315 44.2365Z" fill="#FF5C5C"/>
<path d="M36.1992 42.7869C36.326 42.9686 36.4697 43.1419 36.6302 43.3109C37.8219 43.5053 40.2473 43.6447 44.9504 43.1503C45.0687 43.0024 45.1743 42.8419 45.2673 42.6771C39.7656 43.3912 37.0443 42.9771 36.195 42.7912L36.1992 42.7869Z" fill="#212121"/>
<path d="M45.2717 42.6771C45.2717 42.6771 45.2928 42.6433 45.3055 42.6264C45.4196 42.4151 45.5125 42.1785 45.4914 41.9377C42.7997 42.9095 38.9291 43.0448 36.1698 42.2757C36.081 42.2842 35.9881 42.2884 35.8993 42.2968C35.9881 42.4659 36.0853 42.6307 36.1994 42.7912C37.0487 42.9772 39.77 43.3913 45.2717 42.6771Z" fill="white"/>
<path d="M44.4345 43.6828C44.6205 43.5222 44.7979 43.3489 44.95 43.1503C40.247 43.6447 37.8215 43.5053 36.6299 43.3109C36.8243 43.5095 37.0567 43.6954 37.3102 43.8645C38.2863 43.7039 40.8259 43.387 44.4303 43.6785L44.4345 43.6828Z" fill="#212121"/>
<path d="M37.315 43.8686C37.6234 44.0714 37.9699 44.2531 38.3671 44.3968C39.3939 44.2785 41.1433 44.1517 43.628 44.2362C43.9153 44.0841 44.1857 43.894 44.435 43.6827C40.8264 43.3911 38.2911 43.7038 37.315 43.8686Z" fill="#FF5C5C"/>
<path d="M34.2675 68.1701L40.7242 88.8712H43.344L47.4006 68.1701L40.834 64.2953L34.2675 68.1701Z" fill="#E8E8E8"/>
<path d="M37.3309 66.5348L39.5789 70.9717H42.5368L44.6327 66.5348L40.8339 64.2953L37.3309 66.5348Z" fill="#489596"/>
<path d="M39.579 70.9717L37.8972 79.8031L40.834 89.1374H43.344L45.2539 79.127L42.5369 70.9717H39.579Z" fill="#367070"/>
<path d="M27.4009 32.781C27.4009 32.781 29.894 27.7146 30.325 24.4947L26.1882 21.8917C26.1882 21.8917 25.2628 27.9301 26.8093 32.6416L27.4009 32.781Z" fill="#707880"/>
<path d="M54.348 32.781C54.348 32.781 51.8549 27.7146 51.4239 24.4947L55.5607 21.8917C55.5607 21.8917 56.4861 27.9301 54.9396 32.6416L54.348 32.781Z" fill="#707880"/>
<path d="M30.4438 25.179L29.7762 21.8872C29.7762 21.8872 40.2387 18.0842 51.7872 22.238L51.4238 24.4902L30.4438 25.179Z" fill="#EDC0B2"/>
<path d="M46.7248 13.47C46.0825 11.7122 43.0147 10.4149 41.5738 9.62897C40.1287 8.84301 38.5525 8.50919 36.9848 8.24298C36.1228 8.09509 35.2523 7.96832 34.3903 8.06973C32.3874 8.31482 30.5873 9.78954 28.5802 9.96279C28.3224 9.98392 28.0351 10.0008 27.8618 10.2332C27.7562 10.3769 27.7181 10.5713 27.6928 10.7614C27.3716 13.2038 28.9098 15.5532 30.7732 16.5505C32.6367 17.5477 34.7453 17.5054 36.7778 17.4463C38.5103 17.3956 40.2385 17.3449 41.971 17.2984" fill="#242629"/>
<path d="M48.3818 28.7074C48.6818 28.6948 49.0156 28.6948 49.2269 28.906C49.2945 28.9736 49.341 29.0835 49.2819 29.1553C49.2565 29.1892 49.21 29.2018 49.172 29.2145C48.7579 29.3413 48.3269 29.4004 47.9001 29.4596C47.3719 29.5314 46.8437 29.6075 46.3155 29.6793C45.9901 29.7258 44.8366 30.0216 44.5746 29.7892C44.1478 29.4047 44.9337 29.2187 45.2042 29.13C46.2268 28.8046 47.317 28.7539 48.3818 28.7074Z" fill="#242629"/>
<path d="M33.1696 29.3329C32.8696 29.3414 32.5358 29.3667 32.3414 29.5907C32.278 29.6625 32.24 29.7766 32.3076 29.8442C32.3372 29.8738 32.3794 29.8865 32.4217 29.8949C32.8442 29.9921 33.2753 30.0175 33.7063 30.0471C34.2387 30.0809 34.7711 30.1189 35.2993 30.1527C35.6289 30.1738 36.7994 30.3893 37.0445 30.1358C37.4417 29.7217 36.643 29.5907 36.3684 29.5273C35.3247 29.278 34.2345 29.3076 33.1696 29.3372V29.3329Z" fill="#242629"/>
<path d="M37.3656 36.0053H33.3006C32.9963 36.0053 32.7259 35.8236 32.6118 35.5362L31.416 32.5065C31.3357 32.2995 31.3483 32.0755 31.454 31.8811C31.5596 31.691 31.7413 31.5558 31.9568 31.5093C33.1527 31.2684 35.5739 30.9219 38.3543 31.2811C38.5698 31.3107 38.7642 31.429 38.8825 31.6107C39.0009 31.7882 39.0347 32.0079 38.9797 32.2149L38.0755 35.4644C37.9867 35.7813 37.6952 36.0053 37.3656 36.0053ZM32.0202 31.8135C31.8934 31.8389 31.7878 31.9192 31.7244 32.029C31.6653 32.1431 31.6568 32.2741 31.7033 32.3966L32.8991 35.4264C32.9667 35.5912 33.1231 35.701 33.3006 35.701H37.3656C37.5599 35.701 37.729 35.57 37.7797 35.3841L38.6839 32.1347C38.7177 32.0121 38.6966 31.8896 38.629 31.7839C38.5572 31.6783 38.4431 31.6065 38.3163 31.5896C35.5824 31.2346 33.1991 31.5811 32.0202 31.8135Z" fill="#3A3E42"/>
<path d="M48.3338 36.0053H44.2688C43.9646 36.0053 43.6941 35.8236 43.5801 35.5362L42.3842 32.5065C42.3039 32.3037 42.3166 32.0755 42.4222 31.8811C42.5279 31.691 42.7096 31.5558 42.9251 31.5093C44.1209 31.2684 46.5464 30.9219 49.3226 31.2811C49.5381 31.3107 49.7325 31.429 49.8508 31.6107C49.9691 31.7882 50.0029 32.0079 49.948 32.2149L49.0437 35.4644C48.955 35.7813 48.6634 36.0053 48.3338 36.0053ZM42.9842 31.8135C42.8575 31.8389 42.7518 31.9192 42.6885 32.029C42.6293 32.1431 42.6208 32.2741 42.6673 32.3966L43.8632 35.4264C43.9308 35.5912 44.0871 35.701 44.2646 35.701H48.3296C48.524 35.701 48.693 35.57 48.7437 35.3841L49.648 32.1347C49.6818 32.0121 49.6607 31.8896 49.593 31.7839C49.5212 31.6783 49.4071 31.6065 49.2803 31.5896C46.5464 31.2346 44.1632 31.5811 42.9842 31.8135Z" fill="#3A3E42"/>
<path d="M42.6381 32.5865H38.6745V32.8949H42.6381V32.5865Z" fill="#3A3E42"/>
<path d="M49.8182 32.019L49.7815 32.3252L54.4973 32.8901L54.534 32.5838L49.8182 32.019Z" fill="#3A3E42"/>
<path d="M31.5487 32.3012L27.2226 32.5855L27.2429 32.8933L31.569 32.609L31.5487 32.3012Z" fill="#3A3E42"/>
<path d="M23.1975 58.6289L21.7439 63.9151C21.6255 64.3545 21.4819 64.7982 21.3847 65.2292C21.3424 65.4447 21.3213 65.6602 21.3636 65.8588C21.4058 66.0575 21.5072 66.2476 21.634 66.4251C22.1918 67.1223 22.8045 67.8237 23.3876 68.521C24.5708 69.9154 25.7286 71.3225 26.9033 72.7339C27.0512 72.9198 27.1948 73.1226 27.2878 73.3719C27.3808 73.6212 27.3977 73.8917 27.3596 74.1452C27.2836 74.648 27.047 75.0706 26.8526 75.4762L25.6483 77.9355C25.2553 78.7384 24.968 79.6004 25.2046 80.4371C25.4201 81.2737 25.9694 82.009 26.5019 82.7485C27.5709 84.2316 28.6569 85.7021 29.7133 87.1938L32.8994 91.656C33.4318 92.3997 33.9389 93.1645 34.4924 93.8828C34.7755 94.2378 35.084 94.5758 35.4432 94.8463C35.8023 95.1209 36.2291 95.3153 36.6855 95.3618C36.2291 95.3364 35.7854 95.159 35.4051 94.897C35.0248 94.635 34.6995 94.3012 34.4037 93.9505C33.8205 93.2406 33.2881 92.4969 32.7303 91.7743L29.4471 87.3839C28.3484 85.9219 27.2751 84.4429 26.1892 82.9766C25.6567 82.2456 25.0652 81.4892 24.8116 80.5385C24.6849 80.0694 24.6764 79.5582 24.782 79.0891C24.8835 78.6159 25.0652 78.1764 25.2638 77.7581L26.4892 75.303C26.692 74.8931 26.9075 74.4959 26.9709 74.0903C27.047 73.6846 26.8864 73.3254 26.6033 72.9789L23.1383 68.7322C22.5636 68.0139 21.9847 67.3251 21.4185 66.5856C21.2833 66.3913 21.1607 66.1673 21.1185 65.918C21.072 65.6687 21.1016 65.4194 21.1523 65.187C21.2664 64.7264 21.4143 64.3038 21.5453 63.8644L23.1975 58.6331V58.6289Z" fill="#696969"/>
<path d="M57.7595 58.6287L59.4117 63.86C59.5427 64.2994 59.6906 64.722 59.8047 65.1826C59.8554 65.415 59.885 65.66 59.8385 65.9136C59.792 66.1629 59.6737 66.3868 59.5385 66.5812C58.9681 67.3207 58.3934 68.0095 57.8187 68.7278L54.3537 72.9745C54.0706 73.321 53.9058 73.6802 53.9861 74.0858C54.0495 74.4915 54.2608 74.8887 54.4678 75.2986L55.6932 77.7536C55.8918 78.172 56.0735 78.6114 56.175 79.0847C56.2806 79.5537 56.2721 80.0693 56.1454 80.5341C55.8918 81.4806 55.3003 82.237 54.7678 82.9722C53.6819 84.4427 52.6086 85.9217 51.5099 87.3795L48.2267 91.7699C47.6689 92.4924 47.1365 93.2361 46.5533 93.946C46.2575 94.2967 45.9322 94.6306 45.5519 94.8926C45.1758 95.1588 44.7321 95.332 44.2715 95.3574C44.7279 95.3109 45.1547 95.1165 45.5138 94.8419C45.8772 94.5714 46.1857 94.2334 46.4646 93.8784C47.0181 93.1601 47.5252 92.391 48.0576 91.6515L51.2437 87.1893C52.3001 85.6977 53.3861 84.2272 54.4552 82.744C54.9876 82.0088 55.5369 81.2735 55.7524 80.4326C55.989 79.596 55.7017 78.734 55.3087 77.9311L54.1044 75.4718C53.9101 75.0662 53.6734 74.6436 53.5974 74.1408C53.5593 73.8915 53.5762 73.6168 53.6692 73.3675C53.7622 73.1224 53.9058 72.9154 54.0537 72.7294C55.2284 71.3181 56.3862 69.911 57.5694 68.5165C58.1525 67.8193 58.7652 67.1179 59.323 66.4206C59.4498 66.2432 59.5554 66.0572 59.5935 65.8544C59.6357 65.6558 59.6188 65.4361 59.5723 65.2248C59.4751 64.7938 59.3315 64.3501 59.2131 63.9107L57.7595 58.6245V58.6287Z" fill="#696969"/>
</g>
<g clip-path="url(#clip0_0_914)">
<path d="M12.8511 95.2665L14.1432 98.0016C14.2512 98.2313 14.4608 98.3898 14.7025 98.4261L17.5914 98.8654C18.2008 98.9581 18.445 99.7413 18.0041 100.19L15.9136 102.319C15.7387 102.498 15.659 102.754 15.7001 103.007L16.1938 106.014C16.298 106.648 15.6603 107.133 15.1152 106.833L12.531 105.413C12.315 105.293 12.0553 105.293 11.8393 105.413L9.25508 106.833C8.70996 107.133 8.07227 106.649 8.17641 106.014L8.6701 103.007C8.71124 102.754 8.63153 102.498 8.45668 102.319L6.3649 100.191C5.92392 99.7413 6.16691 98.9581 6.7776 98.8667L9.6665 98.4275C9.9082 98.3912 10.1178 98.2313 10.2258 98.003L11.5179 95.2665C11.7904 94.6888 12.5785 94.6888 12.8511 95.2665Z" fill="#FBCD30"/>
</g>
<g clip-path="url(#clip1_0_914)">
<path d="M26.9566 95.2665L28.2487 98.0016C28.3567 98.2313 28.5662 98.3898 28.8079 98.4261L31.6968 98.8654C32.3062 98.9581 32.5505 99.7413 32.1095 100.19L30.019 102.319C29.8442 102.498 29.7645 102.754 29.8056 103.007L30.2993 106.014C30.4035 106.648 29.7658 107.133 29.2206 106.833L26.6365 105.413C26.4205 105.293 26.1608 105.293 25.9448 105.413L23.3606 106.833C22.8154 107.133 22.1778 106.649 22.2819 106.014L22.7756 103.007C22.8167 102.754 22.737 102.498 22.5622 102.319L20.4704 100.191C20.0294 99.7413 20.2724 98.9581 20.8831 98.8667L23.772 98.4275C24.0137 98.3912 24.2233 98.2313 24.3313 98.003L25.6233 95.2665C25.8959 94.6888 26.684 94.6888 26.9566 95.2665Z" fill="#FBCD30"/>
</g>
<g clip-path="url(#clip2_0_914)">
<path d="M41.0621 95.2665L42.3542 98.0016C42.4622 98.2313 42.6717 98.3898 42.9134 98.4261L45.8023 98.8654C46.4117 98.9581 46.656 99.7413 46.215 100.19L44.1245 102.319C43.9497 102.498 43.87 102.754 43.9111 103.007L44.4048 106.014C44.5089 106.648 43.8713 107.133 43.3261 106.833L40.7419 105.413C40.5259 105.293 40.2662 105.293 40.0503 105.413L37.4661 106.833C36.9209 107.133 36.2832 106.649 36.3874 106.014L36.8811 103.007C36.9222 102.754 36.8425 102.498 36.6677 102.319L34.5759 100.191C34.1349 99.7413 34.3779 98.9581 34.9886 98.8667L37.8775 98.4275C38.1192 98.3912 38.3287 98.2313 38.4367 98.003L39.7288 95.2665C40.0014 94.6888 40.7895 94.6888 41.0621 95.2665Z" fill="#FBCD30"/>
</g>
<g clip-path="url(#clip3_0_914)">
<path d="M55.1676 95.2665L56.4597 98.0016C56.5677 98.2313 56.7772 98.3898 57.0189 98.4261L59.9078 98.8654C60.5172 98.9581 60.7615 99.7413 60.3205 100.19L58.23 102.319C58.0552 102.498 57.9755 102.754 58.0166 103.007L58.5103 106.014C58.6144 106.648 57.9767 107.133 57.4316 106.833L54.8474 105.413C54.6314 105.293 54.3717 105.293 54.1557 105.413L51.5716 106.833C51.0264 107.133 50.3887 106.649 50.4929 106.014L50.9866 103.007C51.0277 102.754 50.948 102.498 50.7732 102.319L48.6814 100.191C48.2404 99.7413 48.4834 98.9581 49.0941 98.8667L51.983 98.4275C52.2247 98.3912 52.4342 98.2313 52.5422 98.003L53.8343 95.2665C54.1069 94.6888 54.895 94.6888 55.1676 95.2665Z" fill="#FBCD30"/>
</g>
<g clip-path="url(#clip4_0_914)">
<path d="M69.2731 95.2665L70.5651 98.0016C70.6731 98.2313 70.8827 98.3898 71.1244 98.4261L74.0133 98.8654C74.6227 98.9581 74.867 99.7413 74.426 100.19L72.3355 102.319C72.1607 102.498 72.081 102.754 72.1221 103.007L72.6158 106.014C72.7199 106.648 72.0822 107.133 71.5371 106.833L68.9529 105.413C68.7369 105.293 68.4772 105.293 68.2612 105.413L65.677 106.833C65.1319 107.133 64.4942 106.649 64.5984 106.014L65.0921 103.007C65.1332 102.754 65.0535 102.498 64.8786 102.319L62.7869 100.191C62.3459 99.7413 62.5889 98.9581 63.1996 98.8667L66.0885 98.4275C66.3302 98.3912 66.5397 98.2313 66.6477 98.003L67.9398 95.2665C68.2124 94.6888 69.0005 94.6888 69.2731 95.2665Z" fill="#FBCD30"/>
</g>
<defs>
<clipPath id="clip0_0_914">
<rect width="12" height="12" fill="white" transform="translate(6.13991 94.8342) scale(1.00753)"/>
</clipPath>
<clipPath id="clip1_0_914">
<rect width="12" height="12" fill="white" transform="translate(20.2454 94.8342) scale(1.00753)"/>
</clipPath>
<clipPath id="clip2_0_914">
<rect width="12" height="12" fill="white" transform="translate(34.3509 94.8342) scale(1.00753)"/>
</clipPath>
<clipPath id="clip3_0_914">
<rect width="12" height="12" fill="white" transform="translate(48.4564 94.8342) scale(1.00753)"/>
</clipPath>
<clipPath id="clip4_0_914">
<rect width="12" height="12" fill="white" transform="translate(62.5619 94.8342) scale(1.00753)"/>
</clipPath>
</defs>
</svg>
