<svg width="81" height="117" viewBox="0 0 81 117" fill="none" xmlns="http://www.w3.org/2000/svg">
<circle cx="40.2559" cy="40.2559" r="40.2559" fill="#F3F5F7"/>
<mask id="mask0_0_984" style="mask-type:luminance" maskUnits="userSpaceOnUse" x="0" y="0" width="81" height="81">
<path d="M40.4506 80.7695C62.6845 80.7695 80.7086 62.7454 80.7086 40.5115C80.7086 18.2777 62.6845 0.253565 40.4506 0.253565C18.2167 0.253565 0.192631 18.2777 0.192631 40.5115C0.192631 62.7454 18.2167 80.7695 40.4506 80.7695Z" fill="white"/>
</mask>
<g mask="url(#mask0_0_984)">
<path d="M39.3383 9.97403C42.2254 7.68635 46.6023 8.50097 49.616 10.6198C52.5326 12.6711 54.6176 15.7396 56.0021 19.0234C57.3865 22.3072 58.1209 25.8273 58.7582 29.3348C60.0371 36.3751 60.9657 43.5083 63.1225 50.3291C64.0005 53.1106 65.0852 55.8288 65.8028 58.6567C66.2375 60.3661 66.5161 62.2655 65.693 63.8188C65.2752 64.6038 64.6083 65.2327 63.8781 65.7434C62.0842 67.0012 59.919 67.609 57.7706 68.0395C51.0089 69.3944 44.0488 69.196 37.1562 68.9935C36.5315 68.9766 35.7042 68.7571 35.7169 68.1324" fill="#362D2C"/>
<path d="M39.5907 9.89784C38.8985 9.10855 37.8391 8.74556 36.8008 8.60628C32.4576 8.02803 28.2241 11.029 26.177 14.9037C25.4637 16.2501 24.9614 17.6937 24.5605 19.1625C20.7871 32.9518 26.0377 48.2522 21.1332 61.6786C20.9137 62.2779 20.6773 62.9491 20.9432 63.5273C21.1627 64.0085 21.6734 64.2786 22.163 64.477C24.3958 65.3845 26.8608 65.4773 29.2666 65.5491C40.2238 65.8699 51.1895 65.9247 62.1467 65.7221" fill="#362D2C"/>
<path d="M45.9579 70.15C49.8199 68.8035 52.7871 65.1652 53.1586 57.0908C50.9216 56.8671 48.6845 56.5632 46.4517 56.521L33.0802 55.9174C31.5228 56.3184 29.9695 56.7152 28.412 57.1161C28.5133 59.0493 29.1253 62.9873 32.253 66.4779C36.5962 71.3233 41.83 71.585 45.9579 70.1457V70.15Z" fill="#F2E8E8"/>
<path d="M77.4363 62.7932C76.9129 62.1601 76.0983 61.8562 75.3174 61.5945C68.8681 59.4419 62.1106 57.6902 55.3066 57.2724C54.5891 57.2302 53.8716 57.1627 53.154 57.0909C52.7868 65.1611 49.8154 68.7994 45.9533 70.15C41.8254 71.5893 36.5916 71.3277 32.2484 66.4822C29.1208 62.9916 28.5046 59.0493 28.4075 57.1204C27.6309 57.3188 26.8585 57.5172 26.0818 57.7156C23.8532 58.2896 21.6247 58.8594 19.3961 59.4334C14.9263 60.5815 10.2369 61.8477 6.94894 65.0809C6.25673 65.7604 5.61517 66.5666 5.4379 67.5205C5.10867 69.2806 6.40024 70.8929 7.60739 72.2182C11.1275 76.0845 14.7574 80.0056 19.3665 82.479C22.4519 84.1378 25.8666 85.0748 29.2432 86.0034C29.7792 86.1511 30.3237 86.2988 30.864 86.4423C35.6124 87.7128 40.5296 88.768 45.2907 87.7043C47.8738 87.1261 50.2754 85.9443 52.6264 84.7287C52.6264 85.0115 52.6264 85.2943 52.6264 85.5728C52.7151 85.5264 52.8079 87.1683 52.8966 87.1219C57.7083 84.6274 62.4609 79.4949 67.1544 76.7894C68.2181 76.1773 69.2817 75.5569 70.282 74.8478C73.4645 72.5897 75.9843 73.2101 77.4574 69.5971C78.023 68.2085 78.3902 63.9455 77.4321 62.789L77.4363 62.7932Z" fill="white"/>
<path d="M46.6861 44.5675C46.5384 47.024 46.5848 49.5142 47.2264 51.9032C47.868 54.2922 51.1686 57.3269 51.1306 58.2133C51.0927 59.0954 48.3365 68.4698 40.8192 68.4698C33.302 68.4698 30.4656 59.1165 30.4656 58.2133C30.4656 57.31 33.7325 54.2922 34.3699 51.9032C35.0072 49.5142 35.0578 47.024 34.9101 44.5675" fill="#E3B7AA"/>
<path d="M54.2115 26.6882C54.2115 26.6882 54.2115 36.396 51.4975 40.8194C48.7836 45.2428 42.79 49.6705 40.7936 49.2399C38.7971 49.6662 32.7994 45.2428 30.0896 40.8194C27.3757 36.396 27.3757 26.6882 27.3757 26.6882L37.2988 16.2586L47.0108 18.4534L49.9612 20.4836L54.2115 26.6882Z" fill="#EDC0B2"/>
<path d="M28.6431 32.0316C28.0648 31.4576 27.2038 31.1875 26.4018 31.3268C25.5999 31.466 24.8824 32.0147 24.532 32.7492C24.169 33.5173 24.2113 34.4375 24.5236 35.2226C24.8359 36.0076 25.4015 36.6787 26.0431 37.2359C26.634 37.7508 27.2967 38.1771 28.0057 38.5106C28.5502 38.7638 29.1327 38.9664 29.5928 39.3505" fill="#EDC0B2"/>
<path d="M52.8656 32.0316C53.4438 31.4576 54.3049 31.1875 55.1068 31.3268C55.9088 31.466 56.6263 32.0147 56.9767 32.7492C57.3396 33.5173 57.2974 34.4375 56.9851 35.2226C56.6728 36.0076 56.1072 36.6787 55.4656 37.2359C54.8747 37.7508 54.212 38.1771 53.5029 38.5106C52.9585 38.7638 52.376 38.9664 51.9159 39.3505" fill="#EDC0B2"/>
<path d="M35.5304 33.2685C35.9967 33.2685 36.3746 32.7829 36.3746 32.1838C36.3746 31.5847 35.9967 31.099 35.5304 31.099C35.0642 31.099 34.6863 31.5847 34.6863 32.1838C34.6863 32.7829 35.0642 33.2685 35.5304 33.2685Z" fill="#0A0807"/>
<path d="M39.9723 20.1545C39.9723 20.1545 42.2727 19.133 43.6529 21.1168C45.0331 23.1006 46.8016 30.1831 50.06 30.1155C53.3185 30.0438 47.65 16.3726 46.5905 15.8746C45.5311 15.3765 40.2425 17.2885 40.2425 17.2885" fill="#BF9B90"/>
<path d="M46.3614 32.1838C46.3614 32.7831 45.9816 33.2685 45.5173 33.2685C45.053 33.2685 44.6731 32.7831 44.6731 32.1838C44.6731 31.5844 45.053 31.099 45.5173 31.099C45.9816 31.099 46.3614 31.5844 46.3614 32.1838Z" fill="#0A0807"/>
<path d="M39.7229 36.8772C39.6806 36.8772 39.6384 36.8646 39.6047 36.8392L38.6972 36.2103C38.5875 36.1344 38.4355 36.0288 38.3595 35.8558C38.2498 35.611 38.3215 35.3071 38.5453 35.0792C38.6677 34.9568 38.8069 34.8723 38.9378 34.7921C38.98 34.7668 39.0264 34.7415 39.0686 34.712C39.7229 34.2941 40.0943 33.4626 39.9803 32.6986C39.9634 32.5847 40.0436 32.4749 40.1576 32.458C40.2758 32.4412 40.3813 32.5214 40.3982 32.6353C40.5375 33.5597 40.0858 34.56 39.2966 35.0665C39.2501 35.096 39.1995 35.1256 39.153 35.1551C39.0349 35.2227 38.9251 35.2902 38.8449 35.3746C38.7647 35.459 38.7014 35.5899 38.7436 35.6827C38.7732 35.7503 38.8618 35.8094 38.9378 35.8642L39.8453 36.4931C39.9423 36.5607 39.9634 36.6915 39.9001 36.7886C39.8579 36.8477 39.7946 36.8772 39.7271 36.8772H39.7229Z" fill="#A38375"/>
<path d="M56.8367 34.7922C56.8367 34.7922 56.8156 34.7922 56.8029 34.7922C56.689 34.7753 56.6088 34.6656 56.6257 34.5516C56.651 34.3743 56.5539 34.1802 56.4442 33.9945C55.963 33.1883 55.4227 32.7325 54.8276 32.6396C54.3717 32.5721 53.8695 32.7451 53.5571 33.087C53.4769 33.1714 53.3461 33.1799 53.2575 33.0997C53.173 33.0195 53.1646 32.8886 53.2448 32.8C53.6584 32.3484 54.2873 32.1289 54.8909 32.2217C55.6127 32.3315 56.2584 32.8549 56.8072 33.7792C56.9591 34.0325 57.0899 34.3068 57.0435 34.6149C57.0266 34.7205 56.938 34.7922 56.8367 34.7922Z" fill="#A38375"/>
<path d="M53.1347 37.5442C53.0291 37.5442 52.9405 37.4683 52.9236 37.3585C52.911 37.2446 52.9912 37.139 53.1051 37.1222C53.8817 37.0251 54.6204 36.527 55.0931 35.7968C55.5447 35.0877 55.7262 33.9228 55.7009 33.0829C55.7009 32.9647 55.7895 32.8676 55.9077 32.8676C56.0217 32.8676 56.123 32.9562 56.123 33.0744C56.1483 33.9144 55.9837 35.189 55.4477 36.029C54.9116 36.8647 54.0548 37.4345 53.16 37.5485C53.1515 37.5485 53.1431 37.5485 53.1347 37.5485V37.5442Z" fill="#A38375"/>
<path d="M24.7669 34.7922C24.6656 34.7922 24.5727 34.7162 24.5601 34.6149C24.5137 34.3068 24.6445 34.0324 24.7964 33.7792C25.3409 32.859 25.9867 32.3357 26.7127 32.2259C27.3163 32.1331 27.9452 32.3568 28.3588 32.8042C28.439 32.8886 28.4306 33.0236 28.3461 33.1038C28.2617 33.184 28.1267 33.1756 28.0465 33.0912C27.7341 32.7493 27.2318 32.572 26.776 32.6438C26.1809 32.7366 25.6406 33.1925 25.1594 33.9987C25.0497 34.1844 24.9526 34.3785 24.9779 34.5558C24.9948 34.6698 24.9146 34.7795 24.8007 34.7964C24.788 34.7964 24.7796 34.7964 24.7669 34.7964V34.7922Z" fill="#A38375"/>
<path d="M28.469 37.544C28.469 37.544 28.4521 37.544 28.4436 37.544C27.5446 37.4301 26.692 36.8645 26.156 36.0246C25.6199 35.1888 25.4595 33.9099 25.4806 33.07C25.4806 32.9518 25.5819 32.8716 25.6959 32.8632C25.8141 32.8632 25.9027 32.9645 25.9027 33.0784C25.8774 33.9184 26.0589 35.0833 26.5105 35.7924C26.979 36.5268 27.7219 37.0207 28.4985 37.1177C28.6125 37.1304 28.6969 37.2359 28.68 37.3541C28.6673 37.4596 28.5745 37.5398 28.469 37.5398V37.544Z" fill="#A38375"/>
<path d="M48.4053 29.0731C48.3547 29.0731 48.304 29.0563 48.2661 29.0183C47.7216 28.5329 46.9112 28.4822 46.0586 28.4738C45.6914 28.4696 45.2777 28.4865 45.0667 28.727C44.9907 28.8157 44.8556 28.8241 44.767 28.7481C44.6784 28.6722 44.6699 28.5371 44.7459 28.4485C45.0751 28.0728 45.5943 28.0475 46.0586 28.0517C46.9956 28.0644 47.8904 28.1192 48.5404 28.7017C48.629 28.7777 48.6333 28.9128 48.5573 29.0014C48.5151 29.0478 48.456 29.0731 48.4011 29.0731H48.4053Z" fill="#52423A"/>
<path d="M32.4633 29.0731C32.5139 29.0731 32.5646 29.0563 32.6025 29.0183C33.147 28.5329 33.9574 28.4822 34.81 28.4738C35.1772 28.4696 35.5909 28.4865 35.8019 28.727C35.8779 28.8157 36.0129 28.8241 36.1016 28.7481C36.1902 28.6722 36.1987 28.5371 36.1227 28.4485C35.7935 28.0728 35.2743 28.0475 34.81 28.0517C33.873 28.0644 32.9782 28.1192 32.3282 28.7017C32.2396 28.7777 32.2353 28.9128 32.3113 29.0014C32.3535 29.0478 32.4126 29.0731 32.4675 29.0731H32.4633Z" fill="#52423A"/>
<path d="M48.835 39.5069C50.0355 39.5069 51.0087 38.5337 51.0087 37.3332C51.0087 36.1327 50.0355 35.1595 48.835 35.1595C47.6345 35.1595 46.6613 36.1327 46.6613 37.3332C46.6613 38.5337 47.6345 39.5069 48.835 39.5069Z" fill="#E3A1A9"/>
<path d="M32.6359 39.5069C33.8364 39.5069 34.8096 38.5337 34.8096 37.3332C34.8096 36.1327 33.8364 35.1595 32.6359 35.1595C31.4354 35.1595 30.4622 36.1327 30.4622 37.3332C30.4622 38.5337 31.4354 39.5069 32.6359 39.5069Z" fill="#E3A1A9"/>
<path d="M40.7763 42.7822C39.7844 42.7611 38.7925 42.8371 37.8175 42.9975C38.1256 43.5546 38.438 44.0231 38.6532 44.2595C39.3581 45.0361 40.5484 45.5004 41.5529 45.1205C42.4604 44.7786 42.9669 43.8796 43.3679 43.027C42.511 42.8919 41.6458 42.8033 40.7763 42.7822Z" fill="#FF5C5C"/>
<path d="M42.3357 41.1655C42.9224 41.1022 43.5133 41.0262 44.0873 40.9038C44.1591 40.4522 44.1633 40.0006 44.0409 39.5532C43.1545 39.8317 42.2597 40.1145 41.3311 40.2116C40.3941 40.3087 39.5879 40.1187 38.6805 39.9626C38.1486 39.8697 36.7853 39.5954 36.7853 39.5954C36.6798 39.8528 36.7136 40.2496 36.8275 40.7054C37.5408 41.0009 38.309 41.1739 39.0856 41.2499C40.1662 41.3512 41.2594 41.2795 42.3357 41.1655Z" fill="white"/>
<path d="M42.3355 41.1656C41.255 41.2795 40.166 41.3513 39.0855 41.25C38.3088 41.174 37.5407 41.001 36.8273 40.7055C37.0131 41.4188 37.4014 42.2841 37.8023 42.9974C38.7773 42.8328 39.7692 42.761 40.7611 42.7821C41.6306 42.799 42.4916 42.8919 43.3527 43.0269C43.3654 42.9974 43.3822 42.9679 43.3949 42.9383C43.6946 42.2883 43.9774 41.6003 44.0913 40.9081C43.5173 41.0305 42.9264 41.1065 42.3397 41.1698L42.3355 41.1656Z" fill="#212121"/>
<path d="M38.6463 51.5066C39.3174 52.0637 40.0856 52.6209 40.9551 52.5871C41.4532 52.566 41.9217 52.3507 42.3522 52.0975C44.0658 51.0845 45.3785 49.4173 45.9568 47.5095C44.9227 48.1426 43.8843 48.7757 42.7489 49.1978C41.6136 49.6199 40.3642 49.814 39.1866 49.5397C38.735 49.4342 38.3044 49.2653 37.8781 49.0965C37.11 48.7926 36.1687 48.2312 35.3668 48.1468C35.333 48.7166 36.2911 49.3666 36.6626 49.7254C37.3041 50.3416 37.971 50.9368 38.6548 51.5066H38.6463Z" fill="#D49D90"/>
<path d="M40.0565 20.1548C40.0565 20.1548 37.7562 19.1334 36.376 21.1171C34.9958 23.1009 33.2273 30.1834 29.9688 30.1159C26.7104 30.0441 32.3789 16.3729 33.4383 15.8749C34.5019 15.3811 39.7864 17.2889 39.7864 17.2889" fill="#BF9B90"/>
<path d="M38.6887 19.1582C37.6715 19.1751 36.6248 19.3861 35.8059 19.977C34.6115 20.8381 34.1134 22.3323 33.6787 23.7251C33.2439 25.1349 32.805 26.5404 32.3702 27.9501C32.0536 28.9758 31.7075 30.0437 30.9436 30.8076C29.4916 32.2554 27.1069 32.1118 25.0724 31.7531C26.7143 28.5917 24.3127 24.6115 25.5114 21.2644C25.7773 20.5258 26.2078 19.8546 26.6468 19.2046C27.6303 17.7442 28.6981 16.3134 30.0783 15.2033C31.4585 14.0975 33.1933 13.3335 34.9744 13.4053C36.7767 13.4728 39.3261 14.4056 40.5121 15.7394C41.1579 16.4653 40.4235 18.7868 40.2926 19.8251C40.1576 20.9014 39.6384 19.1371 38.6972 19.154L38.6887 19.1582Z" fill="#3B3230"/>
<path d="M41.9374 18.9643C42.9547 18.9812 44.2167 19.3864 45.0355 19.9815C46.23 20.8425 46.728 22.3367 47.1628 23.7296C47.5975 25.1393 48.0365 26.5448 48.4712 27.9546C48.7878 28.9802 49.1339 30.0481 49.8979 30.8121C51.3498 32.2598 53.7346 32.1163 55.769 31.7575C54.1271 28.5961 56.5287 24.6159 55.33 21.2688C55.0641 20.5302 54.6336 19.8591 54.1946 19.2091C53.2112 17.7487 52.1433 16.3178 50.7631 15.2078C49.3829 14.0977 47.6482 13.338 45.867 13.4097C44.0647 13.4772 41.5154 14.41 40.3293 15.7438C39.6835 16.4698 39.6202 18.5295 39.7511 19.5679C39.8186 20.1039 40.1225 19.7493 40.5361 19.4623C40.9456 19.1753 41.4605 18.9516 41.9332 18.9601L41.9374 18.9643Z" fill="#3B3230"/>
</g>
<g clip-path="url(#clip0_0_984)">
<path d="M12.84 95.291L14.1307 98.0231C14.2385 98.2525 14.4479 98.4109 14.6893 98.4471L17.5749 98.8859C18.1836 98.9785 18.4276 99.7608 17.9871 100.209L15.899 102.336C15.7244 102.514 15.6447 102.771 15.6858 103.023L16.179 106.026C16.283 106.659 15.646 107.144 15.1015 106.844L12.5202 105.426C12.3045 105.307 12.0451 105.307 11.8293 105.426L9.24806 106.844C8.70356 107.144 8.06659 106.661 8.17061 106.026L8.66375 103.023C8.70484 102.771 8.62522 102.514 8.45057 102.336L6.36115 100.21C5.92066 99.7608 6.16338 98.9785 6.77338 98.8872L9.65901 98.4484C9.90045 98.4122 10.1098 98.2525 10.2176 98.0244L11.5083 95.291C11.7805 94.714 12.5678 94.714 12.84 95.291Z" fill="#FBCD30"/>
</g>
<g clip-path="url(#clip1_0_984)">
<path d="M26.9296 95.291L28.2202 98.0231C28.3281 98.2525 28.5374 98.4109 28.7788 98.4471L31.6645 98.8859C32.2732 98.9785 32.5172 99.7608 32.0767 100.209L29.9886 102.336C29.8139 102.514 29.7343 102.771 29.7754 103.023L30.2685 106.026C30.3725 106.659 29.7356 107.144 29.1911 106.844L26.6098 105.426C26.394 105.307 26.1346 105.307 25.9189 105.426L23.3376 106.844C22.7931 107.144 22.1561 106.661 22.2602 106.026L22.7533 103.023C22.7944 102.771 22.7148 102.514 22.5401 102.336L20.4507 100.21C20.0102 99.7608 20.2529 98.9785 20.8629 98.8872L23.7486 98.4484C23.99 98.4122 24.1993 98.2525 24.3072 98.0244L25.5978 95.291C25.8701 94.714 26.6573 94.714 26.9296 95.291Z" fill="#FBCD30"/>
</g>
<g clip-path="url(#clip2_0_984)">
<path d="M41.0191 95.291L42.3098 98.0231C42.4176 98.2525 42.627 98.4109 42.8684 98.4471L45.754 98.8859C46.3627 98.9785 46.6067 99.7608 46.1663 100.209L44.0781 102.336C43.9035 102.514 43.8238 102.771 43.8649 103.023L44.3581 106.026C44.4621 106.659 43.8251 107.144 43.2806 106.844L40.6994 105.426C40.4836 105.307 40.2242 105.307 40.0084 105.426L37.4272 106.844C36.8827 107.144 36.2457 106.661 36.3497 106.026L36.8429 103.023C36.8839 102.771 36.8043 102.514 36.6297 102.336L34.5403 100.21C34.0998 99.7608 34.3425 98.9785 34.9525 98.8872L37.8381 98.4484C38.0796 98.4122 38.2889 98.2525 38.3968 98.0244L39.6874 95.291C39.9596 94.714 40.7469 94.714 41.0191 95.291Z" fill="#FBCD30"/>
</g>
<g clip-path="url(#clip3_0_984)">
<path d="M55.1087 95.291L56.3993 98.0231C56.5072 98.2525 56.7165 98.4109 56.9579 98.4471L59.8436 98.8859C60.4523 98.9785 60.6963 99.7608 60.2558 100.209L58.1677 102.336C57.993 102.514 57.9134 102.771 57.9545 103.023L58.4476 106.026C58.5517 106.659 57.9147 107.144 57.3702 106.844L54.7889 105.426C54.5732 105.307 54.3137 105.307 54.098 105.426L51.5167 106.844C50.9722 107.144 50.3352 106.661 50.4393 106.026L50.9324 103.023C50.9735 102.771 50.8939 102.514 50.7192 102.336L48.6298 100.21C48.1893 99.7608 48.432 98.9785 49.042 98.8872L51.9277 98.4484C52.1691 98.4122 52.3784 98.2525 52.4863 98.0244L53.7769 95.291C54.0492 94.714 54.8364 94.714 55.1087 95.291Z" fill="#FBCD30"/>
</g>
<g clip-path="url(#clip4_0_984)">
<path d="M69.1982 95.291L70.4889 98.0231C70.5967 98.2525 70.8061 98.4109 71.0475 98.4471L73.9331 98.8859C74.5418 98.9785 74.7858 99.7608 74.3454 100.209L72.2572 102.336C72.0826 102.514 72.003 102.771 72.044 103.023L72.5372 106.026C72.6412 106.659 72.0042 107.144 71.4597 106.844L68.8785 105.426C68.6627 105.307 68.4033 105.307 68.1876 105.426L65.6063 106.844C65.0618 107.144 64.4248 106.661 64.5288 106.026L65.022 103.023C65.0631 102.771 64.9834 102.514 64.8088 102.336L62.7194 100.21C62.2789 99.7608 62.5216 98.9785 63.1316 98.8872L66.0172 98.4484C66.2587 98.4122 66.468 98.2525 66.5759 98.0244L67.8665 95.291C68.1387 94.714 68.926 94.714 69.1982 95.291Z" fill="#FBCD30"/>
</g>
<defs>
<clipPath id="clip0_0_984">
<rect width="12" height="12" fill="white" transform="translate(6.13666 94.8593) scale(1.0064)"/>
</clipPath>
<clipPath id="clip1_0_984">
<rect width="12" height="12" fill="white" transform="translate(20.2262 94.8593) scale(1.0064)"/>
</clipPath>
<clipPath id="clip2_0_984">
<rect width="12" height="12" fill="white" transform="translate(34.3158 94.8593) scale(1.0064)"/>
</clipPath>
<clipPath id="clip3_0_984">
<rect width="12" height="12" fill="white" transform="translate(48.4053 94.8593) scale(1.0064)"/>
</clipPath>
<clipPath id="clip4_0_984">
<rect width="12" height="12" fill="white" transform="translate(62.4949 94.8593) scale(1.0064)"/>
</clipPath>
</defs>
</svg>
