<svg width="63" height="59" viewBox="0 0 63 59" fill="none" xmlns="http://www.w3.org/2000/svg">
<g clip-path="url(#clip0_0_1144)">
<path d="M24.3149 56.6808C34.3829 56.6808 42.5447 48.519 42.5447 38.4509C42.5447 28.3829 34.3829 20.2211 24.3149 20.2211C14.2468 20.2211 6.08505 28.3829 6.08505 38.4509C6.08505 48.519 14.2468 56.6808 24.3149 56.6808Z" fill="#FFC8CD"/>
<path d="M42.5498 56.4719C52.6179 56.4719 60.7797 48.3101 60.7797 38.242C60.7797 28.174 52.6179 20.0122 42.5498 20.0122C32.4818 20.0122 24.32 28.174 24.32 38.242C24.32 48.3101 32.4818 56.4719 42.5498 56.4719Z" fill="#FF3A4A"/>
<path d="M13.0388 5.92381L10.5891 0.70395C10.148 -0.235307 8.81213 -0.235307 8.37106 0.70395L5.92137 5.92381L0.704689 8.37349C-0.234568 8.81456 -0.234568 10.1505 0.704689 10.5915L5.92455 13.0412L8.37423 18.2611C8.8153 19.2003 10.1512 19.2003 10.5923 18.2611L13.042 13.0412L18.2618 10.5915C19.2011 10.1505 19.2011 8.81456 18.2618 8.37349L13.042 5.92381H13.0388Z" fill="#FF3A4A"/>
</g>
<defs>
<clipPath id="clip0_0_1144">
<rect width="62.4329" height="58.1657" fill="white" transform="scale(1.00908)"/>
</clipPath>
</defs>
</svg>
