<svg width="82" height="117" viewBox="0 0 82 117" fill="none" xmlns="http://www.w3.org/2000/svg">
<circle cx="40.2453" cy="40.2453" r="40.2453" fill="#F3F5F7"/>
<mask id="mask0_0_850" style="mask-type:luminance" maskUnits="userSpaceOnUse" x="1" y="0" width="81" height="81">
<path d="M41.7527 80.7099C63.9807 80.7099 82 62.6906 82 40.4626C82 18.2345 63.9807 0.215179 41.7527 0.215179C19.5246 0.215179 1.50527 18.2345 1.50527 40.4626C1.50527 62.6906 19.5246 80.7099 41.7527 80.7099Z" fill="white"/>
</mask>
<g mask="url(#mask0_0_850)">
<path d="M35.1744 10.2582C38.7189 7.02166 44.7067 6.93726 48.3398 10.0767C49.6606 11.216 50.6522 12.6803 51.6228 14.1276C52.2557 15.0686 52.8844 16.0096 53.4203 17.0097C54.7284 19.4613 55.8973 18.4444 56.5598 21.1407C57.5936 25.3604 58.1 33.3272 59.0241 37.5722C59.5262 39.8804 60.1465 42.4037 62.0496 43.8005C63.2058 44.6486 64.8641 45.1508 65.2017 46.5433C65.4549 47.5855 64.7882 48.6236 64.0497 49.4084C60.3069 53.396 54.4626 54.4172 49.053 55.2189C48.0993 55.3582 47.0571 55.4848 46.23 54.9911C45.6139 54.624 45.2299 53.9783 44.8881 53.3496C40.4701 45.2647 38.5037 35.7915 32.6932 28.6391C31.0265 26.5841 28.9504 24.4659 29.0052 21.8201" fill="#3B2E2A"/>
<path d="M34.1571 12.807C30.6759 11.1867 26.3001 13.2121 24.1902 16.3811C22.0846 19.5459 21.7344 23.4997 21.6837 27.2721C21.612 32.8294 22.0635 38.3952 23.034 43.8681C23.2155 44.902 23.418 45.9527 23.2746 46.9949C23.1395 47.9739 21.3208 48.9782 21.0803 49.9403C20.8398 50.9024 20.8314 52.0037 21.4643 52.7759C21.8821 53.2907 22.5234 53.5819 23.148 53.8308C25.895 54.9195 30.2666 55.447 33.2204 55.1389C36.1699 54.8309 39.0773 53.5354 40.9719 51.3032C43.4193 48.4212 43.9173 44.4336 43.8751 40.6992" fill="#3B2E2A"/>
<path d="M32.2118 56.4343C31.3932 56.6453 30.5745 56.8562 29.7559 57.063C28.9795 57.2613 28.2073 57.4597 27.4309 57.658C25.2029 58.2319 22.9749 58.8015 20.7469 59.3754C16.2782 60.5232 11.5902 61.7891 8.30304 65.0213C7.61101 65.7007 6.96961 66.5067 6.79239 67.4603C6.46325 69.2199 7.75448 70.8319 8.96131 72.1568C12.4805 76.0221 16.1095 79.9422 20.7174 82.4149C23.802 84.0732 27.2157 85.01 30.5914 85.9383C31.1273 86.086 31.6717 86.2337 32.2118 86.3772C34.3723 86.9553 36.5665 87.487 38.765 87.795C37.7818 83.2631 36.3175 76.5284 36.1572 75.9714C35.98 75.3511 33.5072 62.9368 32.2118 56.4343Z" fill="#8F8F8F"/>
<path d="M78.768 62.7384C78.2447 62.1055 77.4303 61.8017 76.6497 61.54C70.202 59.388 63.4463 57.6368 56.6442 57.2191C55.9268 57.1769 55.2095 57.1094 54.4921 57.0376C53.4245 56.9321 52.357 56.8055 51.2894 56.7001C49.5762 61.8734 47.6309 67.916 47.6984 68.4139C47.825 69.2916 45.2341 84.3095 45.2341 84.3095L45.0274 87.9173C45.5633 87.8498 46.0949 87.7612 46.6224 87.643C49.2048 87.0649 51.6058 85.8834 53.9562 84.6681C53.9562 84.9509 53.9562 85.2336 53.9562 85.5121C54.0448 85.4657 54.1377 87.1071 54.2263 87.0607C59.0367 84.5669 63.7881 79.4357 68.4804 76.7309C69.5437 76.1191 70.6071 75.4988 71.6072 74.7899C74.7888 72.5323 77.308 73.1526 78.7806 69.5406C79.3461 68.1523 79.7132 63.8904 78.7553 62.7342L78.768 62.7384Z" fill="#8F8F8F"/>
<path d="M47.7022 68.4142C47.6304 67.9205 49.5799 61.8779 51.2931 56.7004C50.1243 56.5822 48.9554 56.4894 47.7908 56.4683L34.4228 55.8649C33.6844 56.0548 32.9459 56.2447 32.2117 56.4345C33.5029 62.9371 35.9799 75.3514 36.1571 75.9717C36.3132 76.5287 37.7817 83.2633 38.7649 87.7953C40.8621 88.0906 42.9592 88.1793 45.0353 87.9134L45.2421 84.3056C45.2421 84.3056 47.833 69.2919 47.7064 68.41L47.7022 68.4142Z" fill="white"/>
<path d="M48.3058 62.5149C49.6097 60.2531 50.4578 58.1137 50.4747 57.7255C50.5127 56.8436 49.0105 54.2401 48.3733 51.8517C47.7361 49.4634 47.6855 46.9738 47.8332 44.5179H36.0603C36.2079 46.9738 36.1615 49.4634 35.5201 51.8517C34.8787 54.2401 33.4694 56.3963 33.4694 57.3036C33.4694 57.696 34.2205 59.8269 35.4315 62.1182C39.571 63.4263 44.0819 63.5529 48.3016 62.5149H48.3058Z" fill="#E3B7AA"/>
<path d="M35.4357 62.1183C37.0265 65.127 39.4191 68.4141 41.972 68.4141C44.3013 68.4141 46.6685 65.3675 48.31 62.515C44.0903 63.553 39.5794 63.4264 35.4399 62.1183H35.4357Z" fill="white"/>
<path d="M29.4271 55.5524C29.271 57.0968 28.2372 57.3331 27.2667 58.5442C26.2961 59.7552 24.642 62.4854 23.9289 63.8652C23.2158 65.2451 22.933 66.9625 23.6673 68.3297C24.3931 69.6842 25.9037 70.3804 27.1949 71.2159C28.4862 72.0514 29.7521 73.3975 29.482 74.9124C29.347 75.6761 28.8406 76.3091 28.4229 76.9631C27.8996 77.7818 27.4903 78.8114 27.8616 79.7102C28.0389 80.1363 28.368 80.4781 28.6929 80.8073C31.9547 84.1239 35.2123 87.4406 38.4742 90.7573C38.0564 86.9722 37.6387 83.1872 37.2209 79.3979C36.9044 76.5285 36.588 73.6465 35.9466 70.8319C35.5668 69.1609 35.0773 67.5153 34.5709 65.878C33.6595 62.9369 32.689 60.0169 31.6594 57.1179" fill="#737373"/>
<path d="M40.5632 51.5648C41.2341 52.1218 42.0021 52.6788 42.8714 52.645C43.3693 52.6239 43.8377 52.4087 44.2681 52.1555C45.9813 51.1428 47.2936 49.4718 47.8717 47.5687C46.8379 48.2017 45.7998 48.8346 44.6647 49.2566C43.5296 49.6786 42.2806 49.8727 41.1033 49.5984C40.6518 49.4929 40.2214 49.3241 39.7952 49.1553C39.0272 48.8515 38.0862 48.2903 37.2845 48.2059C37.2507 48.7756 38.2086 49.4254 38.5799 49.7841C39.2213 50.4001 39.888 50.9951 40.5716 51.5648H40.5632Z" fill="#D49D90"/>
<path d="M55.2011 25.7825C55.2011 25.7825 55.8214 35.4666 53.3993 40.0534C50.9772 44.6402 45.2806 49.4422 43.2594 49.1426C41.293 49.6996 35.0268 45.6656 32.0392 41.4291C29.0517 37.1883 28.4272 27.5041 28.4272 27.5041L37.6598 16.4612L47.4917 18.0267L50.5636 19.8622L55.2011 25.7825Z" fill="#EDC0B2"/>
<path d="M30.0302 32.7532C29.4183 32.2173 28.5406 32.0021 27.7516 32.1962C26.9625 32.3861 26.2789 32.9769 25.9793 33.7322C25.6628 34.5213 25.7683 35.437 26.1312 36.2007C26.4941 36.9687 27.1017 37.5974 27.7769 38.1122C28.3972 38.5848 29.0892 38.9731 29.815 39.2558C30.372 39.4752 30.967 39.6355 31.4522 39.99" fill="#EDC0B2"/>
<path d="M37.7569 32.4119C37.7949 33.0068 37.4489 33.5174 36.9847 33.547C36.5206 33.5765 36.1112 33.1165 36.0733 32.5216C36.0353 31.9266 36.3813 31.416 36.8455 31.3865C37.3096 31.3569 37.719 31.8169 37.7569 32.4119Z" fill="#0A0807"/>
<path d="M47.7143 31.7703C47.7523 32.3652 47.4063 32.8758 46.9421 32.9053C46.478 32.9349 46.0687 32.4749 46.0307 31.88C45.9927 31.285 46.3387 30.7744 46.8029 30.7449C47.2671 30.7153 47.6764 31.1753 47.7143 31.7703Z" fill="#0A0807"/>
<path d="M41.3943 36.8759C41.3521 36.8759 41.3099 36.8674 41.2719 36.8463L40.3267 36.2767C40.2127 36.205 40.0524 36.1121 39.9638 35.9433C39.8372 35.707 39.892 35.399 40.0988 35.1585C40.2127 35.0277 40.3435 34.939 40.4744 34.8504C40.5166 34.8209 40.5588 34.7914 40.601 34.7618C41.2255 34.3019 41.5462 33.4495 41.3816 32.6942C41.3563 32.5802 41.428 32.4663 41.5419 32.4452C41.6559 32.4241 41.7698 32.4916 41.7909 32.6056C41.9892 33.5212 41.601 34.5466 40.8457 35.1036C40.7993 35.1374 40.7529 35.1669 40.7064 35.2007C40.5967 35.2766 40.487 35.3484 40.4111 35.437C40.3351 35.5256 40.2803 35.6606 40.3267 35.7492C40.3604 35.8125 40.4533 35.8674 40.5334 35.918L41.4786 36.4877C41.5799 36.5467 41.6095 36.6776 41.5504 36.7788C41.5124 36.8421 41.4491 36.8759 41.3816 36.8801L41.3943 36.8759Z" fill="#A38375"/>
<path d="M26.3389 35.7537C26.2377 35.7622 26.1406 35.6905 26.1195 35.5892C26.052 35.2854 26.1659 35.0026 26.301 34.741C26.7862 33.7874 27.3981 33.2262 28.1112 33.0658C28.7062 32.935 29.3518 33.1164 29.7907 33.5384C29.875 33.6186 29.875 33.7536 29.7949 33.838C29.7147 33.9224 29.5797 33.9266 29.4953 33.8422C29.1619 33.5215 28.6513 33.3781 28.1998 33.4793C27.6133 33.6101 27.0985 34.0996 26.6723 34.9351C26.5752 35.125 26.4909 35.3276 26.5288 35.5048C26.5541 35.6187 26.4824 35.7327 26.3685 35.758C26.3558 35.758 26.3474 35.758 26.3347 35.7622L26.3389 35.7537Z" fill="#A38375"/>
<path d="M30.213 38.2639C30.213 38.2639 30.1961 38.2639 30.1877 38.2639C29.2847 38.2091 28.3943 37.6985 27.8078 36.8968C27.2212 36.095 26.9765 34.8333 26.9469 33.9936C26.9469 33.8755 27.0356 33.7869 27.1495 33.7742C27.2676 33.7742 27.3647 33.8628 27.3689 33.9767C27.3985 34.8165 27.6516 35.9684 28.1496 36.6436C28.6644 37.3441 29.4366 37.7913 30.2172 37.8378C30.3354 37.8462 30.424 37.9433 30.4155 38.0614C30.4071 38.1669 30.3227 38.2513 30.2172 38.2597L30.213 38.2639Z" fill="#A38375"/>
<path d="M49.5551 28.5338C49.5045 28.5338 49.4538 28.5211 49.4117 28.4874C48.8378 28.0359 48.0276 28.0401 47.1752 28.0865C46.8081 28.1034 46.3988 28.1498 46.2047 28.403C46.133 28.4958 46.0021 28.5127 45.9093 28.441C45.8165 28.3692 45.7996 28.2384 45.8713 28.1456C46.1752 27.7489 46.6942 27.6898 47.1541 27.6645C48.0909 27.6139 48.9855 27.6139 49.6733 28.154C49.7661 28.2257 49.783 28.3566 49.707 28.4494C49.6691 28.5 49.6142 28.5253 49.5551 28.5296V28.5338Z" fill="#52423A"/>
<path d="M34.7942 29.4831C34.8449 29.4831 34.8913 29.4578 34.9293 29.4198C35.4398 28.9008 36.2458 28.7995 37.0982 28.7362C37.4653 28.7067 37.8746 28.6982 38.1025 28.9261C38.1869 29.0105 38.3177 29.0105 38.4021 28.9261C38.4865 28.8459 38.4865 28.7109 38.4021 28.6265C38.0518 28.272 37.5286 28.2805 37.0686 28.3142C36.1361 28.386 35.2457 28.4999 34.6339 29.1244C34.5537 29.2088 34.5537 29.3396 34.6339 29.424C34.6803 29.4662 34.7394 29.4873 34.7942 29.4831Z" fill="#52423A"/>
<path d="M52.6811 36.6101C52.757 37.8085 51.8498 38.8423 50.6514 38.9182C49.453 38.9942 48.4234 38.087 48.3432 36.8886C48.2673 35.6902 49.1745 34.6564 50.3729 34.5804C51.5713 34.5044 52.6051 35.4117 52.6811 36.6101Z" fill="#E3A1A9"/>
<path d="M36.5243 37.6481C36.6002 38.8465 35.693 39.8804 34.4946 39.9563C33.2962 40.0323 32.2624 39.125 32.1864 37.9266C32.1105 36.7282 33.0177 35.6944 34.2161 35.6185C35.4145 35.5425 36.4441 36.4497 36.5243 37.6481Z" fill="#E3A1A9"/>
<path d="M42.7772 41.252C41.6041 41.311 40.4311 41.4461 39.2875 41.657C39.6842 42.0959 40.0766 42.4588 40.3425 42.6402C41.2202 43.231 42.6506 43.5264 43.8195 43.1339C44.8786 42.7795 45.4272 41.9946 45.8534 41.2562C44.8322 41.2098 43.8068 41.2013 42.773 41.252H42.7772Z" fill="#FF5C5C"/>
<path d="M44.5315 39.7919C45.2236 39.6948 45.9156 39.5851 46.5907 39.4416C46.654 39.0619 46.6329 38.6863 46.4642 38.3234C45.4303 38.623 44.3839 38.9268 43.291 39.0745C42.1854 39.2264 41.2233 39.1294 40.1388 39.0661C39.5017 39.0281 37.8729 38.9057 37.8729 38.9057C37.7589 39.1294 37.8222 39.4543 37.9826 39.8256C38.8392 40.0155 39.7633 40.1041 40.6832 40.1041C41.9702 40.1041 43.2572 39.9649 44.5273 39.7876L44.5315 39.7919Z" fill="white"/>
<path d="M44.5311 39.7921C43.261 39.9693 41.9698 40.1128 40.687 40.1086C39.7671 40.1086 38.843 40.0199 37.9864 39.8301C38.2438 40.4081 38.7544 41.096 39.2607 41.6572C40.4085 41.4462 41.5773 41.3112 42.7504 41.2521C43.78 41.2015 44.8054 41.2099 45.8308 41.2563C45.8477 41.231 45.8603 41.2057 45.8772 41.1761C46.1937 40.6149 46.4975 40.0199 46.5946 39.4376C45.9194 39.5811 45.2232 39.6908 44.5354 39.7879L44.5311 39.7921Z" fill="#212121"/>
<path d="M39.0816 19.2883C40.6218 18.3346 42.6515 18.3726 44.2845 19.1448C45.6812 19.8031 47.0906 21.1534 47.8586 22.491C48.2594 23.1873 48.4535 24.0481 48.1919 24.8076C47.9683 25.4533 47.4535 25.9512 46.9345 26.4027C45.85 27.3479 44.6854 28.2045 43.4574 28.9556C43.2929 29.0569 43.1156 29.1708 43.0608 29.3565C43.0017 29.5717 43.1452 29.8038 43.3393 29.9135C43.5334 30.0232 43.7655 30.0443 43.9891 30.0654C45.5293 30.1877 47.0695 30.3143 48.6097 30.4367C50.0191 30.5506 51.5297 30.6266 52.8294 29.9641C54.5046 29.1117 55.3823 27.2382 55.8971 25.4322C57.0491 21.4024 56.7537 16.5328 53.6438 13.7225C51.0993 11.4228 47.3733 11.081 43.9469 11.1823C42.5755 11.2202 41.1577 11.3257 39.934 11.946C38.7103 12.5663 37.7102 13.8238 37.7946 15.1952" fill="#3B2E2A"/>
<path d="M39.5125 18.1575C38.2888 21.1493 34.9932 24.5166 33.3011 27.2678C32.664 28.3058 32.1238 29.4072 31.3854 30.3777C30.82 31.1246 30.1406 31.7829 29.3768 32.3272C29.2249 32.4369 29.0561 32.5424 28.8705 32.5509C28.6764 32.5551 28.4991 32.4496 28.3346 32.3483C27.1699 31.6225 25.9969 30.8123 25.2837 29.6393C25.0305 29.2215 24.8407 28.77 24.6761 28.3101C23.5959 25.2761 23.6423 21.816 25.0221 18.9044C26.4019 15.9928 29.149 13.7184 32.3179 13.1318C33.6514 12.8829 35.0692 12.9377 36.3013 13.4947C37.2339 13.9167 38.023 14.6045 38.7023 15.3683" fill="#3B2E2A"/>
<path d="M53.2344 26.1033C54.2344 33.7831 54.7408 41.56 54.7492 49.3032C54.7492 49.531 54.7577 49.7969 54.8843 49.9488C54.956 50.0374 55.053 50.0669 55.1459 50.088C56.4202 50.3412 57.3401 48.5521 57.7621 46.8768C58.5891 43.577 58.6229 39.9186 58.2389 36.3867C57.8549 32.8548 57.0701 29.4116 56.2852 25.9894C55.8801 24.2171 55.475 22.4491 55.0699 20.6768C55.1248 21.0692 55.1838 21.4659 55.2387 21.8583" fill="#3B2E2A"/>
<path d="M45.3472 8.64203C49.8074 9.0007 53.8667 11.9207 56.0483 15.8282C58.2299 19.7356 58.635 24.4912 57.6307 28.8501C57.2214 30.6308 56.5842 32.4031 56.6981 34.226C56.7741 35.4244 57.175 36.5764 57.4619 37.7452C57.9176 39.6188 58.078 41.564 57.9345 43.4882C57.3648 40.4965 56.791 37.492 55.7276 34.6353C55.3732 33.6817 54.9638 32.7491 54.7064 31.7659C54.1283 29.5632 54.3098 27.1411 53.2549 25.1241" fill="#3B2E2A"/>
<path d="M28.8859 58.7384C28.6961 60.4726 28.5273 62.3209 29.3375 63.8653C29.9788 65.0848 31.1983 66.0173 31.5021 67.3634C31.8482 68.8867 30.9114 70.3805 30.6709 71.9207C30.3713 73.8153 31.1266 75.6973 31.9115 77.4485C33.6331 81.2968 35.5573 85.0566 37.6798 88.7024C37.2494 83.5248 36.819 78.343 36.3885 73.1655C36.3295 72.4692 36.2746 71.7772 36.186 71.0852C35.7936 68.009 34.7935 65.0088 33.2618 62.3082C32.7005 61.3208 31.7975 60.2448 30.6793 60.4347" fill="#5E5E5E"/>
<path d="M53.7499 54.9703C53.906 56.5147 56.0496 57.1856 57.0201 58.3924C57.9907 59.5993 59.1975 62.0298 59.9106 63.4097C60.6237 64.7895 60.9065 66.5069 60.1722 67.8741C59.4464 69.2286 57.9358 69.9249 56.6446 70.7603C55.3534 71.5958 54.0874 72.9419 54.3575 74.4568C54.4925 75.2206 54.9989 75.8535 55.4166 76.5076C55.9399 77.3262 56.3492 78.3558 55.9779 79.2546C55.8006 79.6808 55.4715 80.0226 55.1466 80.3517C51.8848 83.6684 48.6272 86.9851 45.3654 90.3017C45.7831 86.5167 46.2008 82.7316 46.6186 78.9423C46.9351 76.0729 47.2515 73.1909 47.8929 70.3764C48.2727 68.7054 48.7622 67.0597 49.2686 65.4224C50.18 62.4813 51.1505 59.5613 52.1801 56.6624" fill="#737373"/>
<path d="M55.336 58.7384C55.5259 60.4726 55.6947 62.3209 54.8845 63.8653C54.2431 65.0848 53.0236 66.0173 52.7198 67.3634C52.3738 68.8867 53.3106 70.3805 53.5511 71.9207C53.8507 73.8153 53.0954 75.6973 52.3105 77.4485C50.5889 81.2968 48.6647 85.0566 46.5422 88.7024C46.9726 83.5248 47.403 78.343 47.8334 73.1655C47.8925 72.4692 47.9474 71.7772 48.036 71.0852C48.4284 68.009 49.4285 65.0088 50.9602 62.3082C51.5214 61.3208 52.4244 60.2448 53.5427 60.4347" fill="#5E5E5E"/>
<path d="M28.4569 56.5987C28.191 56.8476 27.9041 57.1261 27.8535 57.4848C27.8197 57.7253 27.8957 57.9701 27.9758 58.2022C28.7649 60.4977 30.035 62.6328 31.6723 64.4262C32.0478 64.8355 32.4487 65.2406 32.6428 65.7596C33.0352 66.8019 32.4867 67.9285 32.1829 69.0003C31.3263 71.9794 32.3559 75.1526 33.5205 78.0262C35.2126 82.2122 37.217 86.3053 38.2677 90.698C38.3099 90.8752 38.3605 91.0693 38.4997 91.1832C38.9133 91.525 39.4407 90.9047 39.5969 90.3899C40.5378 87.3011 40.6476 84.0309 40.7488 80.8028C40.867 76.9966 40.9851 73.1694 40.4957 69.397C40.4281 68.8822 40.348 68.3589 40.1454 67.8821C39.9851 67.4981 39.753 67.1521 39.5293 66.7977C38.3056 64.8482 37.4448 62.6961 36.5924 60.5567C36.0143 59.1136 35.4236 57.6452 35.1746 56.1007C35.0101 55.0669 35.681 51.2017 35.681 51.2017C34.0184 49.7375 29.5624 55.5733 28.4569 56.5987Z" fill="#858585"/>
<path d="M55.5125 56.5987C55.7783 56.8476 56.0653 57.1261 56.1159 57.4848C56.1497 57.7253 56.0737 57.9701 55.9935 58.2022C55.2045 60.4977 53.9343 62.6328 52.2929 64.4262C51.9173 64.8355 51.5164 65.2406 51.3223 65.7596C50.9299 66.8019 51.4785 67.9285 51.7823 69.0003C52.6389 71.9794 51.6093 75.1526 50.4446 78.0262C48.7525 82.2122 46.7482 86.3053 45.6975 90.698C45.6553 90.8752 45.6047 91.0693 45.4654 91.1832C45.0519 91.525 44.5244 90.9047 44.3683 90.3899C43.4273 87.3011 43.3176 84.0309 43.2163 80.8028C43.0982 76.9966 42.98 73.1694 43.4695 69.397C43.537 68.8822 43.6172 68.3589 43.8197 67.8821C43.9801 67.4981 44.2122 67.1521 44.4358 66.7977C45.6595 64.8482 46.5203 62.6961 47.3727 60.5567C47.9508 59.1136 48.5416 57.6452 48.7905 56.1007C48.9551 55.0669 48.2842 51.2017 48.2842 51.2017C49.9467 49.7375 54.4027 55.5733 55.5083 56.5987H55.5125Z" fill="#737373"/>
</g>
<g clip-path="url(#clip0_0_850)">
<path d="M13.4935 95.2277L14.7838 97.959C14.8916 98.1884 15.1009 98.3467 15.3423 98.3829L18.2271 98.8216C18.8357 98.9141 19.0796 99.6962 18.6393 100.144L16.5517 102.271C16.3771 102.449 16.2975 102.705 16.3385 102.957L16.8316 105.96C16.9355 106.593 16.2987 107.077 15.7544 106.778L13.1738 105.36C12.9581 105.241 12.6988 105.241 12.4831 105.36L9.90247 106.778C9.3581 107.077 8.7213 106.594 8.82529 105.96L9.3183 102.957C9.35939 102.705 9.27979 102.449 9.10518 102.271L7.01631 100.146C6.57594 99.6962 6.81859 98.9141 7.42844 98.8229L10.3133 98.3842C10.5547 98.348 10.7639 98.1884 10.8718 97.9603L12.1621 95.2277C12.4343 94.6508 13.2213 94.6508 13.4935 95.2277Z" fill="#FBCD30"/>
</g>
<g clip-path="url(#clip1_0_850)">
<path d="M27.5793 95.2277L28.8696 97.959C28.9775 98.1884 29.1867 98.3467 29.4281 98.3829L32.313 98.8216C32.9215 98.9141 33.1655 99.6962 32.7251 100.144L30.6375 102.271C30.4629 102.449 30.3833 102.705 30.4244 102.957L30.9174 105.96C31.0214 106.593 30.3846 107.077 29.8402 106.778L27.2596 105.36C27.0439 105.241 26.7846 105.241 26.5689 105.36L23.9883 106.778C23.444 107.077 22.8071 106.594 22.9111 105.96L23.4042 102.957C23.4452 102.705 23.3656 102.449 23.191 102.271L21.1022 100.146C20.6618 99.6962 20.9044 98.9141 21.5143 98.8229L24.3992 98.3842C24.6405 98.348 24.8498 98.1884 24.9576 97.9603L26.2479 95.2277C26.5201 94.6508 27.3071 94.6508 27.5793 95.2277Z" fill="#FBCD30"/>
</g>
<g clip-path="url(#clip2_0_850)">
<path d="M41.6652 95.2277L42.9555 97.959C43.0633 98.1884 43.2726 98.3467 43.514 98.3829L46.3988 98.8216C47.0074 98.9141 47.2513 99.6962 46.8109 100.144L44.7234 102.271C44.5488 102.449 44.4692 102.705 44.5102 102.957L45.0032 105.96C45.1072 106.593 44.4704 107.077 43.9261 106.778L41.3455 105.36C41.1298 105.241 40.8704 105.241 40.6548 105.36L38.0742 106.778C37.5298 107.077 36.893 106.594 36.997 105.96L37.49 102.957C37.5311 102.705 37.4515 102.449 37.2769 102.271L35.188 100.146C34.7476 99.6962 34.9903 98.9141 35.6001 98.8229L38.485 98.3842C38.7264 98.348 38.9356 98.1884 39.0435 97.9603L40.3338 95.2277C40.606 94.6508 41.393 94.6508 41.6652 95.2277Z" fill="#FBCD30"/>
</g>
<g clip-path="url(#clip3_0_850)">
<path d="M55.751 95.2277L57.0413 97.959C57.1492 98.1884 57.3584 98.3467 57.5998 98.3829L60.4847 98.8216C61.0932 98.9141 61.3372 99.6962 60.8968 100.144L58.8092 102.271C58.6346 102.449 58.555 102.705 58.5961 102.957L59.0891 105.96C59.1931 106.593 58.5563 107.077 58.0119 106.778L55.4313 105.36C55.2156 105.241 54.9563 105.241 54.7406 105.36L52.16 106.778C51.6156 107.077 50.9788 106.594 51.0828 105.96L51.5758 102.957C51.6169 102.705 51.5373 102.449 51.3627 102.271L49.2739 100.146C48.8335 99.6962 49.0761 98.9141 49.686 98.8229L52.5709 98.3842C52.8122 98.348 53.0215 98.1884 53.1293 97.9603L54.4196 95.2277C54.6918 94.6508 55.4788 94.6508 55.751 95.2277Z" fill="#FBCD30"/>
</g>
<g clip-path="url(#clip4_0_850)">
<path d="M69.8369 95.2277L71.1272 97.959C71.235 98.1884 71.4443 98.3467 71.6856 98.3829L74.5705 98.8216C75.1791 98.9141 75.423 99.6962 74.9826 100.144L72.8951 102.271C72.7205 102.449 72.6409 102.705 72.6819 102.957L73.1749 105.96C73.2789 106.593 72.6421 107.077 72.0978 106.778L69.5172 105.36C69.3015 105.241 69.0421 105.241 68.8265 105.36L66.2459 106.778C65.7015 107.077 65.0647 106.594 65.1687 105.96L65.6617 102.957C65.7028 102.705 65.6232 102.449 65.4486 102.271L63.3597 100.146C62.9193 99.6962 63.162 98.9141 63.7718 98.8229L66.6567 98.3842C66.8981 98.348 67.1073 98.1884 67.2152 97.9603L68.5055 95.2277C68.7777 94.6508 69.5647 94.6508 69.8369 95.2277Z" fill="#FBCD30"/>
</g>
<defs>
<clipPath id="clip0_0_850">
<rect width="12" height="12" fill="white" transform="translate(6.79164 94.796) scale(1.00613)"/>
</clipPath>
<clipPath id="clip1_0_850">
<rect width="12" height="12" fill="white" transform="translate(20.8775 94.796) scale(1.00613)"/>
</clipPath>
<clipPath id="clip2_0_850">
<rect width="12" height="12" fill="white" transform="translate(34.9633 94.796) scale(1.00613)"/>
</clipPath>
<clipPath id="clip3_0_850">
<rect width="12" height="12" fill="white" transform="translate(49.0492 94.796) scale(1.00613)"/>
</clipPath>
<clipPath id="clip4_0_850">
<rect width="12" height="12" fill="white" transform="translate(63.135 94.796) scale(1.00613)"/>
</clipPath>
</defs>
</svg>
